<svg id="svg" version="1.1" xmlns="http://www.w3.org/2000/svg" xmlns:xlink="http://www.w3.org/1999/xlink" width="400" height="126.3573543928924" viewBox="0, 0, 400,126.3573543928924"><g id="svgg"><path id="path0" d="M90.667 18.507 C 90.667 18.605,90.592 18.640,90.500 18.583 C 90.408 18.527,90.333 18.560,90.333 18.657 C 90.333 18.765,89.855 18.833,89.093 18.833 C 88.411 18.833,87.807 18.908,87.750 19.000 C 87.693 19.092,87.351 19.167,86.990 19.167 C 86.629 19.167,86.333 19.242,86.333 19.333 C 86.333 19.425,86.277 19.491,86.208 19.480 C 85.690 19.398,85.167 19.534,85.167 19.750 C 85.167 19.904,85.010 20.000,84.760 20.000 C 84.536 20.000,84.307 20.075,84.250 20.167 C 84.193 20.258,83.926 20.333,83.657 20.333 C 83.387 20.333,83.167 20.403,83.167 20.489 C 83.167 20.574,83.016 20.692,82.831 20.751 C 82.646 20.809,82.538 20.927,82.591 21.012 C 82.643 21.097,82.532 21.167,82.343 21.167 C 82.154 21.167,82.000 21.242,82.000 21.333 C 82.000 21.425,81.855 21.500,81.679 21.500 C 81.502 21.500,81.210 21.688,81.030 21.917 C 80.850 22.146,80.583 22.333,80.437 22.333 C 80.084 22.333,77.267 25.169,76.983 25.810 C 76.860 26.089,76.589 26.408,76.380 26.520 C 76.171 26.632,76.000 26.842,76.000 26.986 C 76.000 27.131,75.812 27.468,75.583 27.734 C 75.354 28.001,75.167 28.319,75.167 28.443 C 75.167 28.566,75.092 28.667,75.000 28.667 C 74.908 28.667,74.833 28.818,74.833 29.002 C 74.833 29.393,74.508 30.025,74.208 30.217 C 74.094 30.290,74.000 30.567,74.000 30.832 C 74.000 31.097,73.925 31.360,73.833 31.417 C 73.742 31.473,73.667 31.778,73.667 32.093 C 73.667 32.409,73.592 32.667,73.500 32.667 C 73.408 32.667,73.333 32.887,73.333 33.157 C 73.333 33.426,73.257 33.694,73.164 33.752 C 73.071 33.809,73.038 33.926,73.090 34.012 C 73.143 34.097,73.113 34.167,73.024 34.167 C 72.668 34.167,72.317 44.551,72.661 44.894 C 72.756 44.989,72.833 45.507,72.833 46.045 C 72.833 46.693,72.918 47.108,73.083 47.274 C 73.221 47.411,73.333 47.781,73.333 48.095 C 73.333 48.410,73.408 48.667,73.500 48.667 C 73.592 48.667,73.667 49.009,73.667 49.427 C 73.667 49.891,73.732 50.146,73.833 50.083 C 73.931 50.023,74.000 50.194,74.000 50.495 C 74.000 50.799,74.102 51.050,74.250 51.106 C 74.387 51.159,74.500 51.340,74.500 51.508 C 74.500 51.676,74.575 51.860,74.667 51.917 C 74.758 51.973,74.833 52.240,74.833 52.510 C 74.833 52.779,74.908 53.000,75.000 53.000 C 75.092 53.000,75.167 53.112,75.167 53.250 C 75.167 53.387,75.279 53.500,75.417 53.500 C 75.554 53.500,75.667 53.636,75.667 53.802 C 75.667 53.968,75.817 54.265,76.000 54.462 C 76.183 54.658,76.335 54.879,76.336 54.951 C 76.340 55.169,77.362 56.253,77.520 56.208 C 77.601 56.185,77.667 56.241,77.667 56.331 C 77.667 56.502,78.051 57.021,78.521 57.483 C 79.449 58.398,80.194 59.000,80.397 59.000 C 80.526 59.000,80.808 59.186,81.024 59.414 C 81.240 59.641,81.548 59.829,81.708 59.830 C 81.869 59.832,82.000 59.908,82.000 60.000 C 82.000 60.092,82.152 60.167,82.339 60.167 C 82.525 60.167,82.720 60.279,82.773 60.417 C 82.826 60.554,83.011 60.667,83.184 60.667 C 83.358 60.667,83.500 60.742,83.500 60.833 C 83.500 60.925,83.688 61.000,83.917 61.000 C 84.146 61.000,84.333 61.075,84.333 61.167 C 84.333 61.258,84.598 61.333,84.922 61.333 C 85.249 61.333,85.547 61.429,85.593 61.548 C 85.638 61.666,85.916 61.781,86.210 61.804 C 86.504 61.826,86.817 61.917,86.906 62.006 C 86.994 62.094,87.502 62.167,88.033 62.167 C 88.567 62.167,89.000 62.241,89.000 62.333 C 89.000 62.441,90.750 62.500,93.917 62.500 C 97.083 62.500,98.833 62.441,98.833 62.333 C 98.833 62.241,99.278 62.167,99.833 62.167 C 100.389 62.167,100.833 62.093,100.833 62.000 C 100.833 61.908,101.124 61.833,101.480 61.833 C 101.851 61.833,102.214 61.727,102.333 61.583 C 102.447 61.446,102.720 61.333,102.939 61.333 C 103.159 61.333,103.506 61.247,103.711 61.141 C 104.493 60.736,104.670 60.667,104.914 60.667 C 105.053 60.667,105.167 60.554,105.167 60.417 C 105.167 60.261,105.324 60.167,105.583 60.167 C 105.813 60.167,106.000 60.092,106.000 60.000 C 106.000 59.908,106.139 59.833,106.310 59.833 C 106.480 59.833,106.761 59.646,106.933 59.417 C 107.109 59.182,107.415 59.000,107.633 59.000 C 107.848 59.000,107.974 58.926,107.917 58.833 C 107.860 58.742,107.931 58.667,108.073 58.667 C 108.216 58.667,108.333 58.554,108.333 58.417 C 108.333 58.279,108.411 58.167,108.507 58.167 C 108.727 58.167,111.167 55.720,111.167 55.499 C 111.167 55.408,111.242 55.333,111.333 55.333 C 111.425 55.333,111.491 55.277,111.480 55.208 C 111.426 54.865,111.525 54.667,111.750 54.667 C 111.888 54.667,112.000 54.554,112.000 54.417 C 112.000 54.279,112.075 54.167,112.167 54.167 C 112.258 54.167,112.333 54.017,112.333 53.833 C 112.333 53.650,112.408 53.500,112.500 53.500 C 112.592 53.500,112.667 53.313,112.667 53.083 C 112.667 52.824,112.761 52.667,112.917 52.667 C 113.054 52.667,113.158 52.610,113.147 52.542 C 113.082 52.129,113.192 51.662,113.333 51.750 C 113.432 51.811,113.500 51.617,113.500 51.274 C 113.500 50.955,113.585 50.666,113.689 50.631 C 113.793 50.597,113.886 50.328,113.897 50.035 C 113.908 49.729,114.006 49.501,114.125 49.500 C 114.251 49.500,114.333 49.274,114.333 48.927 C 114.333 48.611,114.408 48.307,114.500 48.250 C 114.592 48.193,114.667 47.711,114.667 47.177 C 114.667 46.519,114.747 46.141,114.917 46.000 C 115.362 45.630,115.259 35.153,114.813 35.429 C 114.733 35.479,114.667 35.028,114.667 34.427 C 114.667 33.809,114.594 33.333,114.500 33.333 C 114.408 33.333,114.333 32.996,114.333 32.583 C 114.333 32.171,114.262 31.833,114.174 31.833 C 114.087 31.833,113.966 31.571,113.906 31.250 C 113.845 30.929,113.730 30.667,113.648 30.667 C 113.567 30.667,113.500 30.404,113.500 30.083 C 113.500 29.762,113.425 29.500,113.333 29.500 C 113.242 29.500,113.167 29.313,113.167 29.083 C 113.167 28.824,113.072 28.667,112.917 28.667 C 112.773 28.667,112.667 28.516,112.667 28.311 C 112.667 28.116,112.512 27.821,112.322 27.657 C 112.133 27.493,111.983 27.315,111.989 27.263 C 112.036 26.847,111.964 26.667,111.750 26.667 C 111.608 26.667,111.500 26.517,111.500 26.319 C 111.500 26.128,111.256 25.733,110.958 25.440 C 110.660 25.147,110.195 24.610,109.923 24.246 C 109.323 23.440,109.008 23.179,108.625 23.172 C 108.465 23.169,108.333 23.072,108.333 22.956 C 108.333 22.840,108.130 22.597,107.882 22.415 C 107.634 22.232,107.297 21.952,107.132 21.792 C 106.968 21.631,106.721 21.500,106.583 21.500 C 106.446 21.500,106.333 21.425,106.333 21.333 C 106.333 21.242,106.191 21.167,106.018 21.167 C 105.844 21.167,105.659 21.054,105.606 20.917 C 105.554 20.779,105.358 20.667,105.172 20.667 C 104.986 20.667,104.833 20.592,104.833 20.500 C 104.833 20.408,104.688 20.333,104.510 20.333 C 104.332 20.333,104.140 20.258,104.083 20.167 C 104.027 20.075,103.829 20.000,103.645 20.000 C 103.460 20.000,103.197 19.887,103.060 19.750 C 102.922 19.612,102.632 19.500,102.415 19.500 C 102.197 19.500,101.973 19.425,101.917 19.333 C 101.860 19.242,101.598 19.167,101.333 19.167 C 101.069 19.167,100.807 19.092,100.750 19.000 C 100.693 18.908,100.051 18.833,99.323 18.833 C 98.354 18.833,98.011 18.778,98.042 18.625 C 98.074 18.464,97.234 18.406,94.375 18.372 C 91.807 18.341,90.667 18.382,90.667 18.507 M47.759 19.015 C 47.811 19.099,47.442 19.167,46.927 19.167 C 46.417 19.167,46.000 19.242,46.000 19.333 C 46.000 19.425,45.737 19.500,45.417 19.500 C 45.009 19.500,44.833 19.575,44.833 19.750 C 44.833 19.900,44.679 20.000,44.448 20.000 C 43.970 20.000,42.630 20.629,42.450 20.938 C 42.377 21.064,42.217 21.167,42.094 21.167 C 41.739 21.167,41.125 21.540,40.515 22.125 C 40.205 22.423,39.883 22.667,39.801 22.667 C 39.718 22.667,39.477 22.854,39.265 23.083 C 39.052 23.313,38.806 23.500,38.717 23.500 C 38.629 23.500,38.456 23.688,38.333 23.917 C 38.211 24.146,38.043 24.333,37.960 24.333 C 37.752 24.333,37.333 24.771,37.333 24.988 C 37.333 25.086,37.258 25.167,37.167 25.167 C 37.075 25.167,37.000 25.317,37.000 25.500 C 37.000 25.685,36.889 25.833,36.750 25.833 C 36.612 25.833,36.500 25.929,36.500 26.047 C 36.500 26.164,36.350 26.368,36.167 26.500 C 35.983 26.632,35.833 26.818,35.833 26.913 C 35.833 27.009,35.646 27.289,35.417 27.536 C 35.188 27.783,35.000 28.139,35.000 28.326 C 35.000 28.518,34.891 28.667,34.750 28.667 C 34.612 28.667,34.500 28.812,34.500 28.990 C 34.500 29.168,34.425 29.360,34.333 29.417 C 34.242 29.473,34.167 29.665,34.167 29.843 C 34.167 30.021,34.092 30.167,34.000 30.167 C 33.908 30.167,33.833 30.354,33.833 30.583 C 33.833 30.813,33.773 31.000,33.699 31.000 C 33.510 31.000,33.000 32.202,33.000 32.645 C 33.000 32.847,32.877 33.199,32.727 33.428 C 32.578 33.657,32.500 33.888,32.554 33.943 C 32.609 33.998,32.544 34.254,32.410 34.513 C 32.276 34.772,32.167 35.320,32.167 35.732 C 32.167 36.144,32.092 36.527,32.000 36.583 C 31.896 36.648,31.833 38.335,31.833 41.093 C 31.833 43.920,31.893 45.500,32.000 45.500 C 32.093 45.500,32.167 45.944,32.167 46.500 C 32.167 47.050,32.232 47.500,32.312 47.500 C 32.392 47.500,32.507 47.875,32.568 48.333 C 32.628 48.792,32.751 49.167,32.839 49.167 C 32.928 49.167,33.000 49.429,33.000 49.750 C 33.000 50.071,33.075 50.333,33.167 50.333 C 33.258 50.333,33.333 50.486,33.333 50.672 C 33.333 50.858,33.446 51.054,33.583 51.106 C 33.721 51.159,33.833 51.329,33.833 51.484 C 33.833 51.640,33.895 51.838,33.971 51.925 C 34.047 52.012,34.209 52.402,34.331 52.792 C 34.453 53.181,34.654 53.500,34.777 53.500 C 34.900 53.500,35.000 53.654,35.000 53.843 C 35.000 54.032,35.075 54.140,35.167 54.083 C 35.258 54.027,35.333 54.135,35.333 54.323 C 35.333 54.512,35.392 54.667,35.464 54.667 C 35.536 54.667,35.738 54.910,35.913 55.208 C 36.300 55.867,36.584 56.167,36.821 56.167 C 36.920 56.167,37.000 56.245,37.000 56.340 C 37.000 56.576,38.260 57.833,38.497 57.833 C 38.601 57.833,38.640 57.908,38.583 58.000 C 38.527 58.092,38.624 58.167,38.800 58.167 C 38.976 58.167,39.261 58.354,39.433 58.583 C 39.605 58.813,39.840 59.000,39.956 59.000 C 40.072 59.000,40.167 59.075,40.167 59.167 C 40.167 59.258,40.317 59.333,40.500 59.333 C 40.685 59.333,40.833 59.444,40.833 59.583 C 40.833 59.721,40.931 59.833,41.050 59.833 C 41.357 59.833,42.164 60.225,42.165 60.375 C 42.166 60.444,42.270 60.500,42.396 60.500 C 42.523 60.500,42.705 60.596,42.802 60.713 C 42.900 60.830,43.190 60.943,43.448 60.964 C 43.706 60.985,43.942 61.077,43.972 61.168 C 44.003 61.259,44.237 61.333,44.493 61.333 C 44.750 61.333,45.053 61.446,45.167 61.583 C 45.281 61.721,45.623 61.833,45.927 61.833 C 46.231 61.833,46.527 61.908,46.583 62.000 C 46.640 62.092,47.061 62.167,47.520 62.167 C 48.033 62.167,48.313 62.231,48.250 62.333 C 48.182 62.443,49.439 62.500,51.897 62.500 C 54.217 62.500,55.686 62.436,55.750 62.333 C 55.807 62.242,56.486 62.167,57.260 62.167 C 58.087 62.167,58.667 62.098,58.667 62.000 C 58.667 61.908,58.996 61.833,59.399 61.833 C 59.896 61.833,60.162 61.753,60.227 61.583 C 60.283 61.437,60.533 61.333,60.828 61.333 C 61.106 61.333,61.333 61.258,61.333 61.167 C 61.333 61.075,61.564 61.000,61.845 61.000 C 62.127 61.000,62.470 60.887,62.609 60.748 C 62.747 60.610,62.930 60.540,63.015 60.592 C 63.100 60.645,63.214 60.571,63.269 60.427 C 63.324 60.284,63.548 60.167,63.768 60.167 C 63.987 60.167,64.167 60.092,64.167 60.000 C 64.167 59.908,64.298 59.832,64.458 59.830 C 64.619 59.829,64.927 59.641,65.142 59.414 C 65.358 59.186,65.614 59.000,65.710 59.000 C 65.806 59.000,66.131 58.813,66.431 58.583 C 66.732 58.354,67.041 58.167,67.119 58.167 C 67.196 58.167,67.368 58.017,67.500 57.833 C 67.632 57.650,67.817 57.499,67.912 57.497 C 68.006 57.496,68.260 57.308,68.476 57.080 C 68.692 56.853,68.973 56.667,69.101 56.667 C 69.229 56.667,69.333 56.603,69.333 56.525 C 69.333 56.447,69.783 55.929,70.333 55.374 C 71.367 54.330,71.762 53.167,71.083 53.167 C 70.946 53.167,70.833 53.065,70.833 52.941 C 70.833 52.817,70.646 52.513,70.417 52.266 C 70.188 52.018,70.000 51.776,70.000 51.727 C 70.000 51.678,69.587 51.235,69.083 50.743 C 68.579 50.251,68.167 49.770,68.167 49.674 C 68.167 49.578,68.095 49.500,68.008 49.500 C 67.818 49.500,67.007 48.715,67.100 48.622 C 67.136 48.586,66.753 48.135,66.249 47.619 C 65.745 47.103,65.333 46.635,65.333 46.579 C 65.333 46.409,64.870 46.000,64.679 46.000 C 64.580 46.000,64.500 45.925,64.500 45.833 C 64.500 45.484,63.540 45.672,63.106 46.106 C 62.864 46.348,62.667 46.610,62.667 46.689 C 62.667 46.769,62.595 46.833,62.508 46.833 C 62.301 46.833,60.667 48.468,60.667 48.675 C 60.667 48.762,60.554 48.833,60.417 48.833 C 60.279 48.833,60.167 48.908,60.167 49.000 C 60.167 49.092,60.054 49.167,59.917 49.167 C 59.779 49.167,59.667 49.242,59.667 49.333 C 59.667 49.425,59.517 49.500,59.333 49.500 C 59.148 49.500,59.000 49.611,59.000 49.750 C 59.000 49.887,58.856 50.000,58.681 50.000 C 58.505 50.000,58.336 50.068,58.306 50.151 C 58.275 50.235,58.100 50.328,57.917 50.360 C 57.733 50.391,57.546 50.454,57.500 50.500 C 56.898 51.101,52.333 51.545,52.333 51.003 C 52.333 50.913,52.146 50.793,51.917 50.735 C 51.688 50.678,51.500 50.564,51.500 50.482 C 51.500 50.400,51.345 50.333,51.155 50.333 C 50.828 50.333,50.333 49.982,50.333 49.750 C 50.333 49.611,49.889 49.167,49.750 49.167 C 49.577 49.167,49.167 48.706,49.167 48.512 C 49.167 48.414,49.092 48.333,49.000 48.333 C 48.908 48.333,48.833 48.183,48.833 48.000 C 48.833 47.817,48.758 47.667,48.666 47.667 C 48.574 47.667,48.369 47.367,48.210 47.000 C 48.051 46.633,47.827 46.333,47.711 46.333 C 47.595 46.333,47.500 46.188,47.500 46.010 C 47.500 45.832,47.425 45.640,47.333 45.583 C 47.242 45.527,47.167 45.227,47.167 44.917 C 47.167 44.607,47.092 44.307,47.000 44.250 C 46.897 44.186,46.833 42.748,46.833 40.490 C 46.833 38.163,46.894 36.833,47.000 36.833 C 47.092 36.833,47.167 36.571,47.167 36.250 C 47.167 35.929,47.242 35.667,47.333 35.667 C 47.425 35.667,47.500 35.514,47.500 35.328 C 47.500 35.142,47.612 34.946,47.750 34.894 C 47.887 34.841,48.000 34.656,48.000 34.482 C 48.000 34.309,48.075 34.167,48.167 34.167 C 48.258 34.167,48.333 34.017,48.333 33.833 C 48.333 33.650,48.486 33.347,48.673 33.161 C 48.859 32.974,48.967 32.749,48.913 32.661 C 48.858 32.572,48.880 32.500,48.962 32.500 C 49.044 32.500,49.209 32.316,49.329 32.091 C 49.449 31.867,49.631 31.698,49.732 31.716 C 49.834 31.735,49.898 31.656,49.875 31.542 C 49.852 31.427,49.928 31.333,50.044 31.333 C 50.160 31.333,50.395 31.146,50.567 30.917 C 50.739 30.688,50.986 30.500,51.117 30.500 C 51.247 30.500,51.312 30.434,51.262 30.353 C 51.087 30.069,54.646 30.123,54.932 30.409 C 55.074 30.551,55.335 30.667,55.512 30.667 C 55.689 30.667,55.833 30.742,55.833 30.833 C 55.833 30.925,55.918 31.000,56.022 31.000 C 56.265 31.000,57.000 31.850,57.000 32.130 C 57.000 32.248,57.112 32.387,57.250 32.440 C 57.387 32.492,57.500 32.720,57.500 32.944 C 57.500 33.174,57.573 33.308,57.667 33.250 C 57.758 33.193,57.833 33.297,57.833 33.480 C 57.833 33.664,57.908 33.860,58.000 33.917 C 58.092 33.973,58.167 34.235,58.167 34.498 C 58.167 34.761,58.279 35.089,58.417 35.226 C 58.557 35.367,58.667 35.774,58.667 36.157 L 58.667 36.838 64.375 36.794 L 70.083 36.750 70.083 28.167 L 70.083 19.583 64.958 19.539 L 59.833 19.495 59.833 19.904 C 59.833 20.130,59.758 20.360,59.667 20.417 C 59.575 20.473,59.500 20.665,59.500 20.843 C 59.500 21.021,59.421 21.167,59.323 21.167 C 59.226 21.167,59.193 21.242,59.250 21.333 C 59.308 21.428,59.168 21.500,58.927 21.500 C 58.692 21.500,58.500 21.421,58.500 21.323 C 58.500 21.226,58.427 21.192,58.338 21.247 C 58.249 21.302,58.044 21.194,57.884 21.007 C 57.724 20.820,57.494 20.667,57.373 20.667 C 57.252 20.667,56.992 20.517,56.795 20.333 C 56.598 20.150,56.301 20.000,56.135 20.000 C 55.969 20.000,55.833 19.903,55.833 19.785 C 55.833 19.663,55.601 19.553,55.294 19.530 C 54.998 19.507,54.683 19.416,54.594 19.328 C 54.506 19.239,54.190 19.167,53.893 19.167 C 53.596 19.167,53.305 19.089,53.246 18.994 C 53.178 18.884,52.136 18.828,50.402 18.842 C 48.801 18.854,47.704 18.926,47.759 19.015 M116.667 23.664 L 116.667 27.833 118.667 27.833 L 120.667 27.833 120.667 40.500 L 120.667 53.167 118.667 53.167 L 116.667 53.167 116.667 57.250 L 116.667 61.333 128.573 61.333 C 136.332 61.333,140.516 61.275,140.583 61.167 C 140.640 61.075,141.244 61.000,141.927 61.000 C 142.642 61.000,143.167 60.930,143.167 60.833 C 143.167 60.742,143.499 60.667,143.905 60.667 C 144.339 60.667,144.746 60.564,144.893 60.417 C 145.030 60.279,145.378 60.167,145.665 60.167 C 145.970 60.167,146.144 60.098,146.083 60.000 C 145.996 59.858,146.462 59.748,146.875 59.814 C 146.944 59.824,147.000 59.721,147.000 59.583 C 147.000 59.428,147.157 59.333,147.417 59.333 C 147.646 59.333,147.833 59.258,147.833 59.167 C 147.833 59.075,148.021 59.000,148.250 59.000 C 148.479 59.000,148.667 58.925,148.667 58.833 C 148.667 58.742,148.761 58.667,148.877 58.667 C 148.992 58.667,149.289 58.479,149.536 58.250 C 149.783 58.021,150.082 57.831,150.201 57.828 C 150.499 57.821,151.000 57.420,151.000 57.190 C 151.000 57.085,151.080 57.000,151.179 57.000 C 151.414 57.000,151.833 56.574,151.833 56.335 C 151.833 56.232,151.908 56.193,152.000 56.250 C 152.092 56.307,152.167 56.236,152.167 56.093 C 152.167 55.950,152.247 55.833,152.345 55.833 C 152.539 55.833,153.000 55.423,153.000 55.250 C 153.000 55.097,153.450 54.667,153.613 54.665 C 153.769 54.662,154.500 53.582,154.500 53.354 C 154.500 53.270,154.612 53.159,154.750 53.106 C 154.887 53.054,155.000 52.858,155.000 52.672 C 155.000 52.486,155.075 52.333,155.167 52.333 C 155.258 52.333,155.335 52.202,155.336 52.042 C 155.338 51.881,155.525 51.573,155.753 51.358 C 155.980 51.142,156.167 50.790,156.167 50.576 C 156.167 50.362,156.242 50.140,156.333 50.083 C 156.425 50.027,156.500 49.829,156.500 49.645 C 156.500 49.460,156.612 49.197,156.750 49.060 C 156.887 48.922,157.000 48.632,157.000 48.415 C 157.000 48.197,157.075 47.973,157.167 47.917 C 157.258 47.860,157.333 47.523,157.333 47.167 C 157.333 46.811,157.408 46.473,157.500 46.417 C 157.592 46.360,157.667 45.949,157.667 45.504 C 157.667 45.004,157.746 44.668,157.875 44.625 C 158.222 44.510,158.270 36.488,157.925 36.295 C 157.736 36.189,157.667 35.880,157.667 35.149 C 157.667 34.523,157.604 34.186,157.500 34.250 C 157.398 34.313,157.333 34.061,157.333 33.603 C 157.333 33.191,157.258 32.807,157.167 32.750 C 157.075 32.693,157.000 32.464,157.000 32.240 C 157.000 31.990,156.904 31.833,156.750 31.833 C 156.575 31.833,156.500 31.657,156.500 31.250 C 156.500 30.929,156.425 30.667,156.333 30.667 C 156.242 30.667,156.167 30.525,156.167 30.351 C 156.167 30.177,155.980 29.858,155.753 29.642 C 155.525 29.427,155.338 29.119,155.336 28.958 C 155.335 28.798,155.258 28.667,155.167 28.667 C 155.075 28.667,155.000 28.562,155.000 28.434 C 155.000 28.306,154.794 27.974,154.542 27.695 C 154.290 27.417,153.746 26.810,153.333 26.346 C 152.921 25.883,152.490 25.503,152.375 25.502 C 152.260 25.501,152.167 25.444,152.166 25.375 C 152.166 25.162,151.388 24.333,151.189 24.333 C 151.085 24.333,151.000 24.262,151.000 24.174 C 151.000 24.087,150.737 23.891,150.417 23.739 C 150.096 23.587,149.833 23.396,149.833 23.314 C 149.833 23.233,149.753 23.167,149.655 23.167 C 149.557 23.167,149.372 23.073,149.244 22.958 C 148.663 22.438,148.497 22.333,148.245 22.333 C 148.097 22.333,147.863 22.220,147.725 22.082 C 147.586 21.943,147.404 21.873,147.319 21.926 C 147.234 21.978,147.119 21.904,147.064 21.761 C 147.009 21.617,146.827 21.500,146.659 21.500 C 146.491 21.500,146.307 21.425,146.250 21.333 C 146.193 21.242,145.934 21.167,145.675 21.167 C 145.409 21.167,145.160 21.058,145.106 20.917 C 145.054 20.779,144.863 20.667,144.682 20.667 C 144.501 20.667,144.315 20.605,144.269 20.530 C 144.222 20.455,143.787 20.376,143.300 20.354 C 142.814 20.333,142.392 20.244,142.361 20.157 C 142.331 20.071,141.820 20.000,141.226 20.000 C 140.633 20.000,140.188 19.933,140.239 19.851 C 140.434 19.536,139.499 19.509,128.248 19.502 L 116.667 19.496 116.667 23.664 M159.333 23.667 L 159.333 27.833 161.333 27.833 L 163.333 27.833 163.333 40.500 L 163.333 53.167 161.333 53.167 L 159.333 53.167 159.333 57.250 L 159.333 61.333 177.667 61.333 L 196.000 61.333 196.000 54.414 L 196.000 47.495 190.542 47.539 L 185.083 47.583 185.038 50.375 L 184.992 53.167 180.663 53.167 L 176.333 53.167 176.333 48.583 L 176.333 44.000 181.833 44.000 L 187.333 44.000 187.333 39.667 L 187.333 35.333 181.833 35.333 L 176.333 35.333 176.333 31.583 L 176.333 27.833 180.667 27.833 L 185.000 27.833 185.000 30.583 L 185.000 33.333 190.500 33.333 L 196.000 33.333 196.000 26.417 L 196.000 19.500 177.667 19.500 L 159.333 19.500 159.333 23.667 M136.125 28.375 C 136.097 28.513,136.351 28.600,136.875 28.634 C 137.310 28.662,137.667 28.756,137.667 28.842 C 137.667 28.929,137.812 29.000,137.990 29.000 C 138.168 29.000,138.360 29.075,138.417 29.167 C 138.473 29.258,138.624 29.333,138.751 29.333 C 139.060 29.333,141.167 31.453,141.167 31.764 C 141.167 31.900,141.279 32.053,141.416 32.106 C 141.553 32.159,141.623 32.269,141.573 32.351 C 141.522 32.433,141.597 32.500,141.740 32.500 C 141.900 32.500,142.000 32.647,142.000 32.883 C 142.000 33.094,142.069 33.338,142.152 33.425 C 142.236 33.512,142.330 33.771,142.361 34.000 C 142.391 34.229,142.507 34.513,142.618 34.630 C 142.729 34.747,142.779 34.947,142.731 35.073 C 142.682 35.200,142.760 35.531,142.905 35.810 C 143.080 36.149,143.167 36.765,143.167 37.668 C 143.167 38.412,143.230 38.981,143.307 38.933 C 143.385 38.885,143.463 39.324,143.482 39.908 C 143.502 40.508,143.441 41.017,143.342 41.078 C 143.238 41.142,143.167 41.868,143.167 42.849 C 143.167 44.108,143.100 44.613,142.894 44.928 C 142.744 45.157,142.669 45.392,142.728 45.450 C 142.787 45.509,142.738 45.713,142.620 45.903 C 142.501 46.094,142.382 46.512,142.355 46.833 C 142.328 47.154,142.237 47.488,142.153 47.575 C 142.069 47.662,142.000 47.868,142.000 48.033 C 142.000 48.198,141.929 48.333,141.841 48.333 C 141.754 48.333,141.558 48.596,141.405 48.917 C 141.253 49.237,141.062 49.500,140.981 49.500 C 140.900 49.500,140.833 49.563,140.833 49.639 C 140.833 49.859,139.572 51.167,139.359 51.167 C 139.253 51.167,139.167 51.242,139.167 51.333 C 139.167 51.425,139.025 51.500,138.851 51.500 C 138.678 51.500,138.492 51.612,138.440 51.750 C 138.387 51.887,138.191 52.000,138.005 52.000 C 137.819 52.000,137.667 52.075,137.667 52.167 C 137.667 52.258,137.334 52.333,136.927 52.333 C 136.519 52.333,136.140 52.408,136.083 52.500 C 136.027 52.592,135.567 52.667,135.062 52.667 C 134.467 52.667,134.055 52.755,133.893 52.917 C 133.755 53.054,133.573 53.167,133.488 53.167 C 133.394 53.167,133.333 48.248,133.333 40.667 L 133.333 28.167 134.750 28.167 C 135.794 28.167,136.156 28.221,136.125 28.375 M94.667 28.833 C 94.667 28.925,94.859 29.000,95.093 29.000 C 95.335 29.000,95.475 29.072,95.417 29.167 C 95.358 29.261,95.498 29.333,95.740 29.333 C 95.975 29.333,96.167 29.414,96.167 29.512 C 96.167 29.743,96.591 30.167,96.821 30.167 C 96.920 30.167,97.000 30.338,97.000 30.547 C 97.000 30.755,97.150 31.035,97.333 31.167 C 97.531 31.309,97.667 31.598,97.667 31.875 C 97.667 32.138,97.776 32.386,97.917 32.440 C 98.071 32.499,98.167 32.752,98.167 33.101 C 98.167 33.412,98.242 33.667,98.333 33.667 C 98.425 33.667,98.500 33.854,98.500 34.083 C 98.500 34.313,98.579 34.500,98.677 34.500 C 98.774 34.500,98.807 34.575,98.750 34.667 C 98.693 34.758,98.708 34.834,98.782 34.835 C 98.856 34.835,98.927 35.292,98.941 35.850 C 98.954 36.408,99.048 36.948,99.149 37.049 C 99.373 37.273,99.409 43.934,99.186 44.071 C 99.105 44.121,98.987 44.650,98.923 45.246 C 98.859 45.842,98.738 46.373,98.654 46.425 C 98.569 46.477,98.500 46.853,98.500 47.260 C 98.500 47.667,98.425 48.000,98.333 48.000 C 98.242 48.000,98.167 48.179,98.167 48.399 C 98.167 48.618,98.054 48.841,97.917 48.894 C 97.779 48.946,97.667 49.110,97.667 49.257 C 97.667 49.404,97.553 49.637,97.415 49.775 C 97.277 49.914,97.213 50.107,97.274 50.206 C 97.340 50.312,97.306 50.336,97.192 50.266 C 97.087 50.201,97.000 50.226,97.000 50.323 C 97.000 50.552,96.386 51.167,96.157 51.167 C 96.060 51.167,96.034 51.253,96.099 51.359 C 96.172 51.476,96.145 51.506,96.032 51.436 C 95.929 51.373,95.693 51.474,95.506 51.661 C 95.319 51.847,95.054 52.000,94.917 52.000 C 94.779 52.000,94.667 52.075,94.667 52.167 C 94.667 52.258,94.292 52.333,93.833 52.333 C 93.375 52.333,93.000 52.258,93.000 52.167 C 93.000 52.075,92.813 52.000,92.583 52.000 C 92.354 52.000,92.167 51.920,92.167 51.821 C 92.167 51.591,91.743 51.167,91.512 51.167 C 91.414 51.167,91.333 51.088,91.333 50.992 C 91.333 50.897,91.165 50.638,90.958 50.417 C 90.399 49.819,90.167 49.525,90.167 49.417 C 90.167 49.363,90.017 49.158,89.833 48.962 C 89.650 48.765,89.500 48.401,89.500 48.153 C 89.500 47.905,89.388 47.659,89.250 47.606 C 89.105 47.551,89.000 47.302,89.000 47.015 C 89.000 46.743,88.925 46.473,88.833 46.417 C 88.742 46.360,88.667 45.828,88.667 45.235 C 88.667 44.502,88.597 44.129,88.450 44.073 C 88.195 43.975,88.175 36.389,88.428 35.983 C 88.508 35.855,88.627 35.375,88.692 34.917 C 88.878 33.610,89.030 33.094,89.274 32.950 C 89.398 32.877,89.500 32.670,89.500 32.492 C 89.500 32.313,89.575 32.167,89.667 32.167 C 89.758 32.167,89.833 31.979,89.833 31.750 C 89.833 31.521,89.908 31.333,90.000 31.333 C 90.092 31.333,90.167 31.236,90.167 31.118 C 90.167 31.000,90.429 30.624,90.750 30.284 C 91.071 29.944,91.333 29.591,91.333 29.500 C 91.333 29.408,91.483 29.333,91.667 29.333 C 91.850 29.333,92.000 29.276,92.000 29.206 C 92.000 29.136,92.169 28.995,92.375 28.893 C 92.851 28.657,94.667 28.610,94.667 28.833 " stroke="none" fill="#d42c2c" fill-rule="evenodd"></path><path id="path1" d="M267.583 19.000 C 267.527 19.092,266.814 19.167,266.000 19.167 C 265.186 19.167,264.473 19.242,264.417 19.333 C 264.360 19.425,264.061 19.500,263.752 19.500 C 263.443 19.500,263.078 19.612,262.940 19.750 C 262.803 19.887,262.460 20.000,262.179 20.000 C 261.897 20.000,261.667 20.075,261.667 20.167 C 261.667 20.258,261.479 20.333,261.250 20.333 C 261.021 20.333,260.833 20.408,260.833 20.500 C 260.833 20.592,260.681 20.667,260.495 20.667 C 260.309 20.667,260.113 20.779,260.060 20.917 C 260.008 21.054,259.858 21.167,259.729 21.167 C 259.449 21.167,258.197 21.955,257.814 22.373 C 257.666 22.534,257.478 22.668,257.397 22.670 C 257.316 22.672,256.951 22.934,256.585 23.253 C 256.219 23.572,255.863 23.833,255.793 23.833 C 255.724 23.833,255.667 23.914,255.667 24.012 C 255.667 24.206,255.256 24.667,255.083 24.667 C 254.910 24.667,254.500 25.127,254.500 25.321 C 254.500 25.420,254.425 25.500,254.333 25.500 C 254.229 25.500,254.167 24.472,254.167 22.750 L 254.167 20.000 245.833 20.000 L 237.500 20.000 237.500 24.083 L 237.500 28.167 238.727 28.167 C 239.946 28.167,239.953 28.169,239.874 28.583 C 239.830 28.813,239.728 29.000,239.647 29.000 C 239.566 29.000,239.500 29.188,239.500 29.417 C 239.500 29.646,239.425 29.833,239.333 29.833 C 239.242 29.833,239.167 30.021,239.167 30.250 C 239.167 30.509,239.072 30.667,238.917 30.667 C 238.778 30.667,238.667 30.815,238.667 31.000 C 238.667 31.183,238.592 31.333,238.500 31.333 C 238.408 31.333,238.333 31.513,238.333 31.732 C 238.333 31.952,238.221 32.174,238.083 32.227 C 237.946 32.280,237.833 32.475,237.833 32.661 C 237.833 32.848,237.758 33.000,237.667 33.000 C 237.575 33.000,237.500 33.188,237.500 33.417 C 237.500 33.646,237.425 33.833,237.333 33.833 C 237.242 33.833,237.167 33.975,237.167 34.149 C 237.167 34.322,237.054 34.508,236.917 34.560 C 236.779 34.613,236.667 34.809,236.667 34.995 C 236.667 35.181,236.592 35.333,236.500 35.333 C 236.408 35.333,236.333 35.521,236.333 35.750 C 236.333 35.979,236.258 36.167,236.167 36.167 C 236.075 36.167,236.000 36.270,236.000 36.396 C 236.000 36.523,235.887 36.719,235.750 36.833 C 235.545 37.003,235.500 36.992,235.500 36.770 C 235.500 36.622,235.425 36.500,235.333 36.500 C 235.242 36.500,235.167 36.322,235.167 36.104 C 235.167 35.886,235.054 35.614,234.917 35.500 C 234.779 35.386,234.667 35.156,234.667 34.989 C 234.667 34.823,234.592 34.640,234.500 34.583 C 234.408 34.527,234.333 34.335,234.333 34.157 C 234.333 33.979,234.258 33.833,234.167 33.833 C 234.075 33.833,234.000 33.681,234.000 33.495 C 234.000 33.309,233.887 33.113,233.750 33.060 C 233.612 33.008,233.500 32.785,233.500 32.566 C 233.500 32.346,233.425 32.167,233.333 32.167 C 233.242 32.167,233.167 32.066,233.167 31.942 C 233.167 31.608,232.666 30.667,232.488 30.667 C 232.403 30.667,232.333 30.479,232.333 30.250 C 232.333 30.021,232.258 29.833,232.167 29.833 C 232.075 29.833,232.000 29.718,232.000 29.576 C 232.000 29.435,231.813 29.117,231.583 28.869 C 230.982 28.221,231.040 28.167,232.333 28.167 L 233.500 28.167 233.500 24.083 L 233.500 20.000 223.083 20.000 L 212.667 20.000 212.667 24.083 L 212.667 28.167 213.917 28.167 C 215.215 28.167,215.833 28.462,215.833 29.083 C 215.833 29.221,215.891 29.333,215.960 29.333 C 216.088 29.333,216.389 29.827,216.596 30.375 C 216.656 30.535,216.772 30.667,216.853 30.667 C 216.934 30.667,217.000 30.817,217.000 31.000 C 217.000 31.183,217.075 31.333,217.167 31.333 C 217.258 31.333,217.333 31.438,217.333 31.566 C 217.333 31.693,217.446 31.841,217.583 31.894 C 217.721 31.946,217.833 32.104,217.833 32.245 C 217.833 32.385,217.908 32.500,218.000 32.500 C 218.092 32.500,218.167 32.653,218.167 32.841 C 218.167 33.028,218.354 33.383,218.583 33.631 C 218.813 33.878,219.000 34.174,219.000 34.290 C 219.000 34.405,219.075 34.500,219.167 34.500 C 219.258 34.500,219.333 34.645,219.333 34.821 C 219.333 34.998,219.521 35.290,219.750 35.470 C 219.979 35.650,220.167 35.956,220.167 36.149 C 220.167 36.342,220.242 36.500,220.333 36.500 C 220.425 36.500,220.500 36.595,220.500 36.710 C 220.500 36.826,220.688 37.122,220.917 37.369 C 221.146 37.617,221.333 37.940,221.333 38.088 C 221.333 38.236,221.427 38.462,221.542 38.589 C 222.036 39.141,222.167 39.329,222.167 39.493 C 222.167 39.589,222.242 39.667,222.333 39.667 C 222.425 39.667,222.500 39.822,222.500 40.012 C 222.500 40.202,222.594 40.462,222.708 40.589 C 223.203 41.141,223.333 41.329,223.333 41.493 C 223.333 41.589,223.408 41.667,223.500 41.667 C 223.592 41.667,223.667 41.819,223.667 42.005 C 223.667 42.191,223.766 42.382,223.888 42.429 C 224.010 42.476,224.212 42.773,224.336 43.090 C 224.460 43.407,224.623 43.667,224.698 43.667 C 224.772 43.667,224.833 43.817,224.833 44.000 C 224.833 44.183,224.927 44.334,225.042 44.335 C 225.156 44.336,225.459 44.786,225.714 45.335 C 225.970 45.884,226.251 46.333,226.339 46.333 C 226.428 46.333,226.500 46.446,226.500 46.583 C 226.500 46.721,226.575 46.833,226.667 46.833 C 226.758 46.833,226.833 46.983,226.833 47.167 C 226.833 47.350,226.908 47.500,227.000 47.500 C 227.105 47.500,227.167 48.611,227.167 50.500 L 227.167 53.500 225.417 53.500 L 223.667 53.500 223.667 57.667 L 223.667 61.833 233.583 61.833 L 243.500 61.833 243.500 57.667 L 243.500 53.500 241.667 53.500 L 239.833 53.500 239.833 50.768 C 239.833 48.493,239.875 48.020,240.083 47.940 C 240.221 47.887,240.333 47.691,240.333 47.505 C 240.333 47.319,240.408 47.167,240.500 47.167 C 240.592 47.167,240.667 47.013,240.667 46.826 C 240.667 46.638,240.854 46.297,241.083 46.068 C 241.313 45.839,241.500 45.542,241.500 45.409 C 241.500 45.276,241.575 45.167,241.667 45.167 C 241.758 45.167,241.833 44.979,241.833 44.750 C 241.833 44.521,241.908 44.333,242.000 44.333 C 242.092 44.333,242.167 44.225,242.167 44.092 C 242.167 43.959,242.264 43.790,242.384 43.717 C 242.504 43.643,242.747 43.295,242.926 42.942 C 243.532 41.743,243.579 41.667,243.706 41.667 C 243.776 41.667,243.833 41.479,243.833 41.250 C 243.833 41.021,243.908 40.833,244.000 40.833 C 244.092 40.833,244.167 40.753,244.167 40.655 C 244.167 40.557,244.260 40.372,244.375 40.244 C 244.907 39.651,245.000 39.491,245.000 39.174 C 245.000 38.986,245.075 38.833,245.167 38.833 C 245.258 38.833,245.333 38.717,245.333 38.575 C 245.333 38.433,245.521 38.144,245.750 37.931 C 245.979 37.719,246.167 37.393,246.167 37.207 C 246.167 37.021,246.279 36.826,246.417 36.773 C 246.554 36.720,246.667 36.562,246.667 36.422 C 246.667 36.282,246.724 36.167,246.794 36.167 C 246.864 36.167,247.070 35.856,247.252 35.475 C 247.780 34.374,247.904 34.167,248.040 34.167 C 248.109 34.167,248.167 34.042,248.167 33.891 C 248.167 33.739,248.354 33.369,248.583 33.069 C 248.813 32.768,249.000 32.442,249.000 32.344 C 249.000 32.247,249.075 32.167,249.167 32.167 C 249.258 32.167,249.333 32.013,249.333 31.826 C 249.333 31.639,249.521 31.283,249.750 31.036 C 249.979 30.789,250.167 30.492,250.167 30.377 C 250.167 30.261,250.242 30.167,250.333 30.167 C 250.425 30.167,250.500 30.089,250.500 29.993 C 250.500 29.897,250.576 29.729,250.670 29.618 C 250.763 29.507,250.985 29.240,251.162 29.025 C 251.640 28.445,251.844 28.640,251.572 29.417 C 251.443 29.783,251.337 30.215,251.336 30.375 C 251.334 30.535,251.258 30.667,251.167 30.667 C 251.075 30.667,251.000 30.822,251.000 31.012 C 251.000 31.202,250.887 31.470,250.750 31.607 C 250.612 31.745,250.500 32.039,250.500 32.262 C 250.500 32.485,250.425 32.667,250.333 32.667 C 250.242 32.667,250.167 33.004,250.167 33.417 C 250.167 33.829,250.092 34.167,250.000 34.167 C 249.908 34.167,249.833 34.571,249.833 35.066 C 249.833 35.711,249.763 35.991,249.583 36.060 C 249.370 36.142,249.333 36.809,249.333 40.650 C 249.333 44.421,249.373 45.183,249.583 45.393 C 249.746 45.555,249.833 45.968,249.833 46.571 C 249.833 47.082,249.908 47.500,250.000 47.500 C 250.092 47.500,250.167 47.871,250.167 48.323 C 250.167 48.776,250.242 49.193,250.333 49.250 C 250.425 49.307,250.500 49.574,250.500 49.843 C 250.500 50.168,250.584 50.333,250.750 50.333 C 250.925 50.333,251.000 50.509,251.000 50.917 C 251.000 51.237,251.075 51.500,251.167 51.500 C 251.258 51.500,251.333 51.699,251.333 51.943 C 251.333 52.186,251.521 52.631,251.750 52.931 C 251.979 53.232,252.167 53.558,252.167 53.656 C 252.167 53.753,252.242 53.833,252.333 53.833 C 252.425 53.833,252.500 54.021,252.500 54.250 C 252.500 54.479,252.570 54.667,252.655 54.667 C 252.741 54.667,252.857 54.812,252.913 54.990 C 252.970 55.167,253.411 55.714,253.893 56.204 C 254.376 56.694,254.820 57.226,254.881 57.385 C 254.942 57.544,255.125 57.725,255.288 57.787 C 255.450 57.849,255.808 58.135,256.083 58.422 C 256.358 58.709,256.827 59.050,257.125 59.179 C 257.423 59.309,257.667 59.509,257.667 59.624 C 257.667 59.739,257.779 59.833,257.917 59.833 C 258.054 59.833,258.167 59.908,258.167 60.000 C 258.167 60.092,258.317 60.167,258.500 60.167 C 258.683 60.167,258.833 60.240,258.833 60.330 C 258.833 60.420,259.021 60.541,259.250 60.598 C 259.479 60.656,259.667 60.770,259.667 60.851 C 259.667 60.933,259.854 61.000,260.083 61.000 C 260.313 61.000,260.500 61.075,260.500 61.167 C 260.500 61.258,260.641 61.333,260.813 61.333 C 260.985 61.333,261.219 61.446,261.333 61.583 C 261.447 61.721,261.752 61.833,262.011 61.833 C 262.269 61.833,262.527 61.908,262.583 62.000 C 262.640 62.092,262.902 62.167,263.167 62.167 C 263.431 62.167,263.693 62.242,263.750 62.333 C 263.807 62.425,264.336 62.500,264.927 62.500 C 265.770 62.500,266.000 62.554,266.000 62.750 C 266.000 63.127,275.628 63.127,275.773 62.750 C 275.843 62.567,276.132 62.500,276.851 62.500 C 277.395 62.500,277.833 62.426,277.833 62.333 C 277.833 62.242,278.171 62.167,278.583 62.167 C 278.996 62.167,279.333 62.092,279.333 62.000 C 279.333 61.908,279.515 61.833,279.738 61.833 C 279.961 61.833,280.255 61.721,280.393 61.583 C 280.530 61.446,280.798 61.333,280.988 61.333 C 281.178 61.333,281.333 61.258,281.333 61.167 C 281.333 61.075,281.521 61.000,281.750 61.000 C 281.979 61.000,282.167 60.925,282.167 60.833 C 282.167 60.742,282.317 60.667,282.500 60.667 C 282.685 60.667,282.833 60.556,282.833 60.417 C 282.833 60.261,282.991 60.167,283.250 60.167 C 283.479 60.167,283.667 60.092,283.667 60.000 C 283.667 59.908,283.779 59.833,283.917 59.833 C 284.054 59.833,284.167 59.721,284.167 59.583 C 284.167 59.444,284.315 59.333,284.500 59.333 C 284.683 59.333,284.833 59.258,284.833 59.167 C 284.833 59.075,284.914 59.000,285.012 59.000 C 285.206 59.000,285.667 58.590,285.667 58.417 C 285.667 58.278,286.111 57.833,286.250 57.833 C 286.423 57.833,286.833 57.373,286.833 57.179 C 286.833 57.080,286.928 57.000,287.044 57.000 C 287.160 57.000,287.399 56.808,287.575 56.573 C 287.752 56.338,288.032 55.989,288.198 55.797 C 288.364 55.606,288.500 55.365,288.500 55.261 C 288.500 55.158,288.650 54.965,288.833 54.833 C 289.017 54.701,289.167 54.422,289.167 54.213 C 289.167 53.987,289.268 53.833,289.417 53.833 C 289.554 53.833,289.667 53.720,289.667 53.581 C 289.667 53.327,289.724 53.189,290.226 52.224 C 290.377 51.935,290.500 51.579,290.500 51.433 C 290.500 51.286,290.575 51.167,290.667 51.167 C 290.758 51.167,290.833 50.909,290.833 50.593 C 290.833 50.278,290.908 49.973,291.000 49.917 C 291.092 49.860,291.167 49.588,291.167 49.312 C 291.167 49.035,291.279 48.697,291.417 48.560 C 291.577 48.399,291.667 47.988,291.667 47.415 C 291.667 46.922,291.742 46.473,291.833 46.417 C 291.925 46.360,292.000 46.131,292.000 45.907 C 292.000 45.683,292.075 45.500,292.167 45.500 C 292.268 45.500,292.333 46.252,292.333 47.422 C 292.333 48.977,292.381 49.362,292.583 49.440 C 292.758 49.507,292.833 49.780,292.833 50.351 C 292.833 50.800,292.908 51.167,293.000 51.167 C 293.092 51.167,293.167 51.504,293.167 51.917 C 293.167 52.472,293.231 52.667,293.417 52.667 C 293.572 52.667,293.667 52.824,293.667 53.083 C 293.667 53.313,293.742 53.500,293.833 53.500 C 293.925 53.500,294.000 53.646,294.000 53.823 C 294.000 54.001,294.075 54.193,294.167 54.250 C 294.258 54.307,294.333 54.499,294.333 54.677 C 294.333 54.854,294.446 55.000,294.583 55.000 C 294.739 55.000,294.833 55.157,294.833 55.417 C 294.833 55.646,294.896 55.833,294.972 55.833 C 295.048 55.833,295.211 56.021,295.333 56.250 C 295.456 56.479,295.656 56.667,295.778 56.667 C 295.900 56.667,296.000 56.766,296.000 56.887 C 296.000 57.218,296.907 58.167,297.223 58.167 C 297.375 58.167,297.500 58.279,297.500 58.417 C 297.500 58.554,297.596 58.667,297.713 58.667 C 297.830 58.667,298.035 58.817,298.167 59.000 C 298.299 59.183,298.495 59.333,298.602 59.333 C 298.710 59.333,298.841 59.446,298.894 59.583 C 298.946 59.721,299.104 59.833,299.245 59.833 C 299.385 59.833,299.500 59.891,299.500 59.960 C 299.500 60.096,299.707 60.220,300.809 60.748 C 301.189 60.930,301.500 61.136,301.500 61.206 C 301.500 61.276,301.679 61.333,301.899 61.333 C 302.118 61.333,302.341 61.446,302.394 61.583 C 302.450 61.729,302.699 61.833,302.995 61.833 C 303.273 61.833,303.500 61.908,303.500 62.000 C 303.500 62.092,303.796 62.167,304.157 62.167 C 304.518 62.167,304.860 62.242,304.917 62.333 C 304.973 62.425,305.390 62.500,305.843 62.500 C 306.464 62.500,306.667 62.562,306.667 62.750 C 306.667 63.125,314.356 63.125,314.667 62.750 C 314.814 62.572,315.205 62.500,316.020 62.500 C 316.673 62.500,317.167 62.428,317.167 62.333 C 317.167 62.242,317.467 62.167,317.833 62.167 C 318.200 62.167,318.500 62.092,318.500 62.000 C 318.500 61.908,318.650 61.833,318.833 61.833 C 319.019 61.833,319.167 61.722,319.167 61.583 C 319.167 61.427,319.324 61.333,319.586 61.333 C 320.100 61.333,320.531 61.106,321.404 60.375 C 321.541 60.260,321.699 60.167,321.755 60.167 C 321.924 60.167,322.333 59.703,322.333 59.512 C 322.333 59.414,322.431 59.333,322.551 59.333 C 322.981 59.333,325.167 56.976,325.167 56.512 C 325.167 56.322,325.242 56.167,325.333 56.167 C 325.425 56.167,325.500 56.017,325.500 55.833 C 325.500 55.648,325.611 55.500,325.750 55.500 C 325.906 55.500,326.000 55.343,326.000 55.083 C 326.000 54.854,326.075 54.667,326.167 54.667 C 326.258 54.667,326.333 54.479,326.333 54.250 C 326.333 54.021,326.408 53.833,326.500 53.833 C 326.592 53.833,326.667 53.651,326.667 53.429 C 326.667 53.206,326.779 52.911,326.917 52.774 C 327.054 52.636,327.167 52.260,327.167 51.938 C 327.167 51.616,327.242 51.307,327.333 51.250 C 327.425 51.193,327.500 50.784,327.500 50.341 C 327.500 49.779,327.575 49.507,327.750 49.440 C 327.941 49.366,328.000 49.052,328.000 48.098 C 328.000 47.413,328.075 46.807,328.167 46.750 C 328.275 46.683,328.333 43.387,328.333 37.407 L 328.333 28.167 330.333 28.167 L 332.333 28.167 332.333 40.833 L 332.333 53.500 330.500 53.500 L 328.667 53.500 328.667 57.667 L 328.667 61.833 338.750 61.833 L 348.833 61.833 348.833 57.667 L 348.833 53.500 347.083 53.500 L 345.333 53.500 345.333 49.333 C 345.333 44.812,345.348 44.747,346.240 45.422 C 346.420 45.558,346.918 45.667,347.365 45.667 C 347.806 45.667,348.167 45.742,348.167 45.833 C 348.167 45.925,348.317 46.000,348.500 46.000 C 348.683 46.000,348.833 46.075,348.833 46.167 C 348.833 46.258,348.946 46.333,349.083 46.333 C 349.221 46.333,349.333 46.446,349.333 46.583 C 349.333 46.721,349.408 46.833,349.500 46.833 C 349.592 46.833,349.667 47.246,349.667 47.750 C 349.667 48.254,349.742 48.667,349.833 48.667 C 349.933 48.667,350.000 49.302,350.000 50.238 C 350.000 51.413,350.063 51.873,350.250 52.060 C 350.431 52.240,350.500 52.681,350.500 53.655 C 350.500 54.440,350.569 55.000,350.667 55.000 C 350.758 55.000,350.833 55.275,350.833 55.611 C 350.833 56.245,351.297 57.500,351.532 57.500 C 351.606 57.500,351.667 57.650,351.667 57.833 C 351.667 58.017,351.742 58.167,351.833 58.167 C 351.925 58.167,352.000 58.279,352.000 58.417 C 352.000 58.554,352.113 58.667,352.250 58.667 C 352.389 58.667,352.500 58.815,352.500 59.000 C 352.500 59.183,352.575 59.333,352.667 59.333 C 352.758 59.333,352.833 59.446,352.833 59.583 C 352.833 59.721,352.890 59.833,352.958 59.834 C 353.066 59.834,353.414 60.095,354.285 60.830 C 354.395 60.924,354.564 61.000,354.660 61.000 C 354.755 61.000,354.833 61.075,354.833 61.167 C 354.833 61.258,355.021 61.333,355.250 61.333 C 355.509 61.333,355.667 61.428,355.667 61.583 C 355.667 61.749,355.832 61.833,356.157 61.833 C 356.426 61.833,356.693 61.908,356.750 62.000 C 356.807 62.092,357.111 62.167,357.427 62.167 C 357.742 62.167,358.000 62.242,358.000 62.333 C 358.000 62.560,365.443 62.560,365.583 62.333 C 365.640 62.242,365.907 62.167,366.177 62.167 C 366.446 62.167,366.667 62.092,366.667 62.000 C 366.667 61.908,366.819 61.833,367.005 61.833 C 367.191 61.833,367.387 61.721,367.440 61.583 C 367.492 61.446,367.678 61.333,367.851 61.333 C 368.025 61.333,368.167 61.258,368.167 61.167 C 368.167 61.075,368.247 61.000,368.345 61.000 C 368.557 61.000,369.000 60.583,369.000 60.385 C 369.000 60.308,369.188 60.105,369.417 59.933 C 369.646 59.761,369.833 59.480,369.833 59.310 C 369.833 59.139,369.908 59.000,370.000 59.000 C 370.092 59.000,370.167 58.813,370.167 58.583 C 370.167 58.354,370.242 58.167,370.333 58.167 C 370.425 58.167,370.500 57.864,370.500 57.495 C 370.500 57.051,370.585 56.790,370.750 56.727 C 370.925 56.660,371.000 56.388,371.000 55.825 C 371.000 55.382,371.075 54.973,371.167 54.917 C 371.260 54.859,371.336 54.034,371.339 53.032 C 371.343 51.730,371.410 51.163,371.589 50.926 C 371.723 50.749,371.833 50.280,371.833 49.885 L 371.833 49.167 369.250 49.167 L 366.667 49.167 366.667 49.736 C 366.667 50.049,366.584 50.333,366.484 50.367 C 366.383 50.400,366.261 50.781,366.212 51.214 C 366.163 51.646,366.067 52.000,365.998 52.000 C 365.929 52.000,365.822 52.169,365.761 52.375 L 365.650 52.750 365.497 52.375 C 365.413 52.169,365.267 52.000,365.172 52.000 C 365.077 52.000,365.000 51.700,365.000 51.333 C 365.000 50.967,364.925 50.667,364.833 50.667 C 364.740 50.667,364.667 50.206,364.667 49.617 C 364.667 49.039,364.600 48.495,364.518 48.408 C 364.436 48.321,364.337 47.775,364.298 47.195 C 364.259 46.615,364.151 46.090,364.058 46.028 C 363.966 45.967,363.784 45.673,363.654 45.375 C 363.525 45.077,363.333 44.833,363.228 44.833 C 363.124 44.833,362.914 44.571,362.762 44.251 C 362.455 43.605,361.395 42.500,361.081 42.500 C 360.971 42.500,360.739 42.313,360.567 42.083 C 360.395 41.854,360.085 41.667,359.877 41.667 C 359.670 41.667,359.500 41.592,359.500 41.500 C 359.500 41.408,359.387 41.333,359.250 41.333 C 359.113 41.333,359.000 41.221,359.000 41.083 C 359.000 40.928,359.157 40.833,359.417 40.833 C 359.646 40.833,359.833 40.758,359.833 40.667 C 359.833 40.575,360.021 40.500,360.250 40.500 C 360.509 40.500,360.667 40.406,360.667 40.250 C 360.667 40.112,360.803 40.000,360.969 40.000 C 361.135 40.000,361.431 39.850,361.628 39.667 C 361.825 39.483,362.064 39.333,362.160 39.333 C 362.255 39.333,362.333 39.255,362.333 39.159 C 362.333 38.933,363.100 38.167,363.326 38.167 C 363.422 38.167,363.500 38.082,363.500 37.978 C 363.500 37.874,363.639 37.668,363.809 37.520 C 363.980 37.371,364.172 37.081,364.237 36.875 C 364.303 36.669,364.426 36.500,364.511 36.500 C 364.597 36.500,364.667 36.317,364.667 36.093 C 364.667 35.869,364.742 35.640,364.833 35.583 C 364.925 35.527,365.000 35.029,365.000 34.478 C 365.000 33.810,365.083 33.393,365.250 33.226 C 365.415 33.061,365.500 32.646,365.500 32.009 C 365.500 31.352,365.420 30.974,365.250 30.833 C 365.064 30.679,365.000 30.267,365.000 29.230 C 365.000 28.410,364.931 27.833,364.833 27.833 C 364.742 27.833,364.667 27.571,364.667 27.250 C 364.667 26.929,364.592 26.667,364.500 26.667 C 364.408 26.667,364.333 26.526,364.333 26.354 C 364.333 26.182,364.221 25.947,364.083 25.833 C 363.946 25.719,363.833 25.485,363.833 25.313 C 363.833 25.141,363.758 25.000,363.667 25.000 C 363.575 25.000,363.500 24.885,363.500 24.745 C 363.500 24.604,363.387 24.446,363.250 24.394 C 363.113 24.341,363.000 24.227,363.000 24.141 C 363.000 23.929,362.224 23.167,362.008 23.167 C 361.912 23.167,361.833 23.054,361.833 22.917 C 361.833 22.779,361.721 22.667,361.583 22.667 C 361.446 22.667,361.333 22.592,361.333 22.500 C 361.333 22.408,361.183 22.333,361.000 22.333 C 360.817 22.333,360.667 22.260,360.667 22.170 C 360.667 22.080,360.479 21.959,360.250 21.902 C 360.021 21.844,359.833 21.730,359.833 21.649 C 359.833 21.567,359.683 21.500,359.500 21.500 C 359.317 21.500,359.167 21.425,359.167 21.333 C 359.167 21.242,358.974 21.167,358.738 21.167 C 358.502 21.167,358.197 21.054,358.060 20.917 C 357.914 20.771,357.506 20.667,357.081 20.667 C 356.681 20.667,356.307 20.592,356.250 20.500 C 356.193 20.408,355.518 20.333,354.750 20.333 C 353.982 20.333,353.307 20.258,353.250 20.167 C 353.182 20.057,346.332 20.000,333.240 20.000 L 313.333 20.000 313.333 24.083 L 313.333 28.167 314.917 28.167 L 316.500 28.167 316.500 30.657 C 316.500 32.137,316.432 33.189,316.333 33.250 C 316.228 33.315,316.167 35.328,316.167 38.739 C 316.167 43.324,316.129 44.157,315.917 44.333 C 315.739 44.481,315.667 44.870,315.667 45.677 C 315.667 46.302,315.592 46.860,315.500 46.917 C 315.408 46.973,315.333 47.193,315.333 47.406 C 315.333 47.796,314.546 49.370,314.300 49.472 C 314.227 49.503,314.167 49.588,314.167 49.661 C 314.167 49.925,312.787 51.167,312.494 51.167 C 312.329 51.167,312.167 51.250,312.133 51.352 C 312.094 51.467,311.571 51.537,310.750 51.537 C 309.929 51.537,309.406 51.467,309.367 51.352 C 309.333 51.250,309.143 51.165,308.944 51.162 C 308.728 51.159,308.417 50.928,308.167 50.583 C 307.938 50.268,307.656 50.007,307.542 50.005 C 307.427 50.002,307.333 49.887,307.333 49.750 C 307.333 49.612,307.272 49.500,307.198 49.500 C 307.123 49.500,306.958 49.234,306.830 48.909 C 306.703 48.583,306.501 48.237,306.382 48.138 C 306.264 48.040,306.167 47.706,306.167 47.396 C 306.167 47.087,306.092 46.833,306.000 46.833 C 305.905 46.833,305.833 46.344,305.833 45.700 C 305.833 45.077,305.764 44.495,305.680 44.408 C 305.596 44.321,305.502 41.835,305.472 38.883 C 305.431 34.874,305.364 33.464,305.208 33.308 C 305.060 33.160,305.000 32.385,305.000 30.633 L 305.000 28.167 306.583 28.167 L 308.167 28.167 308.167 24.083 L 308.167 20.000 298.500 20.000 L 288.833 20.000 288.833 23.500 C 288.833 25.722,288.772 27.000,288.667 27.000 C 288.575 27.000,288.500 26.850,288.500 26.667 C 288.500 26.481,288.389 26.333,288.250 26.333 C 288.112 26.333,288.000 26.259,288.000 26.167 C 288.000 26.076,287.737 25.722,287.417 25.382 C 287.096 25.042,286.833 24.692,286.833 24.605 C 286.833 24.378,285.816 23.500,285.553 23.500 C 285.432 23.500,285.333 23.425,285.333 23.333 C 285.333 23.242,285.221 23.167,285.083 23.167 C 284.946 23.167,284.833 23.086,284.833 22.988 C 284.833 22.794,284.423 22.333,284.250 22.333 C 284.191 22.333,284.038 22.240,283.911 22.125 C 283.317 21.593,283.158 21.500,282.840 21.500 C 282.653 21.500,282.500 21.425,282.500 21.333 C 282.500 21.242,282.313 21.167,282.083 21.167 C 281.824 21.167,281.667 21.072,281.667 20.917 C 281.667 20.778,281.519 20.667,281.333 20.667 C 281.150 20.667,281.000 20.592,281.000 20.500 C 281.000 20.408,280.817 20.333,280.593 20.333 C 280.369 20.333,280.140 20.258,280.083 20.167 C 280.027 20.075,279.769 20.000,279.511 20.000 C 279.252 20.000,278.947 19.887,278.833 19.750 C 278.719 19.612,278.410 19.500,278.146 19.500 C 277.882 19.500,277.667 19.425,277.667 19.333 C 277.667 19.236,277.111 19.167,276.333 19.167 C 275.556 19.167,275.000 19.097,275.000 19.000 C 275.000 18.894,273.670 18.833,271.343 18.833 C 269.085 18.833,267.647 18.897,267.583 19.000 M198.958 28.673 C 198.706 28.948,198.500 29.321,198.500 29.503 C 198.500 29.686,198.388 29.833,198.250 29.833 C 198.106 29.833,198.000 29.984,198.000 30.189 C 198.000 30.384,197.861 30.666,197.691 30.814 C 197.520 30.962,197.328 31.252,197.263 31.458 C 197.197 31.665,197.074 31.833,196.989 31.833 C 196.903 31.833,196.833 32.021,196.833 32.250 C 196.833 32.479,196.758 32.667,196.667 32.667 C 196.575 32.667,196.498 32.798,196.495 32.958 C 196.492 33.119,196.379 33.396,196.245 33.574 C 196.110 33.751,196.000 34.093,196.000 34.332 C 196.000 34.571,195.915 34.852,195.811 34.955 C 195.548 35.219,195.757 35.667,196.144 35.667 C 196.320 35.667,196.508 35.779,196.560 35.917 C 196.613 36.054,196.809 36.167,196.995 36.167 C 197.181 36.167,197.333 36.242,197.333 36.333 C 197.333 36.425,197.447 36.500,197.586 36.500 C 197.816 36.500,198.162 36.646,198.833 37.027 C 198.971 37.105,199.196 37.211,199.333 37.263 C 199.471 37.315,199.714 37.427,199.873 37.512 C 200.032 37.597,200.278 37.667,200.420 37.667 C 200.561 37.667,200.720 37.779,200.773 37.917 C 200.826 38.054,201.048 38.167,201.268 38.167 C 201.487 38.167,201.667 38.242,201.667 38.333 C 201.667 38.425,201.817 38.500,202.000 38.500 C 202.183 38.500,202.333 38.575,202.333 38.667 C 202.333 38.758,202.521 38.833,202.750 38.833 C 203.009 38.833,203.167 38.928,203.167 39.083 C 203.167 39.239,203.324 39.333,203.583 39.333 C 203.813 39.333,204.000 39.408,204.000 39.500 C 204.000 39.592,204.188 39.667,204.417 39.667 C 204.646 39.667,204.833 39.742,204.833 39.833 C 204.833 39.925,204.965 40.002,205.125 40.005 C 205.285 40.008,205.562 40.121,205.740 40.255 C 205.918 40.390,206.199 40.500,206.365 40.500 C 206.531 40.500,206.667 40.575,206.667 40.667 C 206.667 40.758,206.854 40.833,207.083 40.833 C 207.313 40.833,207.500 40.907,207.500 40.997 C 207.500 41.087,207.688 41.207,207.917 41.265 C 208.146 41.322,208.333 41.436,208.333 41.518 C 208.333 41.600,208.525 41.667,208.760 41.667 C 209.002 41.667,209.142 41.739,209.083 41.833 C 209.027 41.925,208.840 42.000,208.669 42.000 C 208.497 42.000,208.245 42.112,208.107 42.250 C 207.970 42.387,207.702 42.500,207.512 42.500 C 207.322 42.500,207.167 42.575,207.167 42.667 C 207.167 42.758,206.979 42.833,206.750 42.833 C 206.521 42.833,206.333 42.908,206.333 43.000 C 206.333 43.092,206.181 43.167,205.995 43.167 C 205.809 43.167,205.613 43.279,205.560 43.417 C 205.508 43.554,205.285 43.667,205.066 43.667 C 204.846 43.667,204.667 43.742,204.667 43.833 C 204.667 43.925,204.557 44.000,204.422 44.000 C 204.121 44.000,202.937 44.537,202.861 44.708 C 202.831 44.777,202.624 44.833,202.403 44.833 C 202.181 44.833,202.000 44.908,202.000 45.000 C 202.000 45.092,201.813 45.167,201.583 45.167 C 201.324 45.167,201.167 45.261,201.167 45.417 C 201.167 45.572,201.009 45.667,200.750 45.667 C 200.521 45.667,200.333 45.742,200.333 45.833 C 200.333 45.925,200.188 46.000,200.010 46.000 C 199.832 46.000,199.640 46.075,199.583 46.167 C 199.527 46.258,199.340 46.333,199.169 46.333 C 198.997 46.333,198.745 46.446,198.607 46.583 C 198.470 46.721,198.202 46.833,198.012 46.833 C 197.822 46.833,197.667 46.908,197.667 47.000 C 197.667 47.092,197.479 47.167,197.250 47.167 C 197.021 47.167,196.833 47.236,196.833 47.322 C 196.833 47.407,196.665 47.501,196.458 47.530 C 195.973 47.599,195.764 50.667,196.244 50.667 C 196.425 50.667,196.500 50.836,196.500 51.250 C 196.500 51.571,196.575 51.833,196.667 51.833 C 196.758 51.833,196.834 51.965,196.836 52.125 C 196.840 52.590,197.281 53.732,197.482 53.800 C 197.584 53.833,197.667 54.042,197.667 54.264 C 197.667 54.645,197.720 54.667,198.667 54.667 C 199.222 54.667,199.667 54.593,199.667 54.500 C 199.667 54.408,199.845 54.333,200.063 54.333 C 200.281 54.333,200.553 54.221,200.667 54.083 C 200.781 53.946,201.015 53.833,201.187 53.833 C 201.359 53.833,201.500 53.758,201.500 53.667 C 201.500 53.575,201.688 53.500,201.917 53.500 C 202.146 53.500,202.333 53.425,202.333 53.333 C 202.333 53.242,202.486 53.167,202.672 53.167 C 202.858 53.167,203.054 53.054,203.106 52.917 C 203.160 52.776,203.409 52.667,203.675 52.667 C 203.934 52.667,204.193 52.592,204.250 52.500 C 204.307 52.408,204.501 52.333,204.682 52.333 C 204.863 52.333,205.054 52.221,205.106 52.083 C 205.159 51.946,205.344 51.833,205.518 51.833 C 205.691 51.833,205.833 51.758,205.833 51.667 C 205.833 51.575,206.021 51.500,206.250 51.500 C 206.479 51.500,206.667 51.425,206.667 51.333 C 206.667 51.242,206.846 51.167,207.066 51.167 C 207.285 51.167,207.508 51.054,207.560 50.917 C 207.616 50.771,207.866 50.667,208.161 50.667 C 208.439 50.667,208.667 50.592,208.667 50.500 C 208.667 50.408,208.812 50.333,208.990 50.333 C 209.168 50.333,209.360 50.258,209.417 50.167 C 209.473 50.075,209.657 50.000,209.825 50.000 C 209.993 50.000,210.174 49.887,210.227 49.750 C 210.280 49.612,210.475 49.500,210.661 49.500 C 210.848 49.500,211.000 49.425,211.000 49.333 C 211.000 49.242,211.188 49.167,211.417 49.167 C 211.646 49.167,211.833 49.092,211.833 49.000 C 211.833 48.908,211.974 48.833,212.146 48.833 C 212.318 48.833,212.553 48.721,212.667 48.583 C 212.781 48.446,213.052 48.333,213.270 48.333 C 213.488 48.333,213.667 48.258,213.667 48.167 C 213.667 48.075,213.819 48.000,214.005 48.000 C 214.191 48.000,214.387 47.887,214.440 47.750 C 214.492 47.612,214.715 47.500,214.934 47.500 C 215.154 47.500,215.333 47.425,215.333 47.333 C 215.333 47.242,215.521 47.167,215.750 47.167 C 215.979 47.167,216.167 47.092,216.167 47.000 C 216.167 46.908,216.319 46.833,216.505 46.833 C 216.691 46.833,216.887 46.721,216.940 46.583 C 216.992 46.446,217.215 46.333,217.434 46.333 L 217.833 46.333 217.833 42.510 C 217.833 40.141,217.897 38.647,218.000 38.583 C 218.496 38.277,218.026 36.500,217.450 36.500 C 217.305 36.500,217.140 36.425,217.083 36.333 C 217.027 36.242,216.832 36.167,216.652 36.167 C 216.471 36.167,216.280 36.054,216.227 35.917 C 216.174 35.779,216.029 35.667,215.904 35.667 C 215.779 35.667,215.410 35.517,215.083 35.333 C 214.757 35.150,214.377 35.000,214.240 35.000 C 214.102 35.000,213.946 34.887,213.894 34.750 C 213.841 34.612,213.692 34.500,213.563 34.500 C 213.434 34.500,213.199 34.431,213.039 34.347 C 212.880 34.263,212.469 34.072,212.125 33.923 C 211.781 33.773,211.500 33.580,211.500 33.492 C 211.500 33.405,211.354 33.333,211.177 33.333 C 210.999 33.333,210.807 33.258,210.750 33.167 C 210.693 33.075,210.499 33.000,210.318 33.000 C 210.137 33.000,209.946 32.887,209.894 32.750 C 209.841 32.612,209.618 32.500,209.399 32.500 C 209.179 32.500,209.000 32.425,209.000 32.333 C 209.000 32.242,208.850 32.167,208.667 32.167 C 208.483 32.167,208.333 32.092,208.333 32.000 C 208.333 31.908,208.146 31.833,207.917 31.833 C 207.657 31.833,207.500 31.739,207.500 31.583 C 207.500 31.428,207.343 31.333,207.083 31.333 C 206.854 31.333,206.667 31.258,206.667 31.167 C 206.667 31.075,206.479 31.000,206.250 31.000 C 206.021 31.000,205.833 30.925,205.833 30.833 C 205.833 30.742,205.691 30.667,205.518 30.667 C 205.344 30.667,205.159 30.554,205.106 30.417 C 205.054 30.279,204.858 30.167,204.672 30.167 C 204.486 30.167,204.333 30.092,204.333 30.000 C 204.333 29.908,204.146 29.833,203.917 29.833 C 203.688 29.833,203.500 29.766,203.500 29.685 C 203.500 29.603,203.313 29.489,203.083 29.432 C 202.854 29.374,202.667 29.253,202.667 29.163 C 202.667 29.074,202.521 29.000,202.343 29.000 C 202.165 29.000,201.973 28.925,201.917 28.833 C 201.860 28.742,201.677 28.667,201.511 28.667 C 201.344 28.667,201.114 28.554,201.000 28.417 C 200.620 27.959,199.482 28.102,198.958 28.673 M291.667 30.157 C 291.667 31.304,291.737 32.191,291.833 32.250 C 291.927 32.308,292.000 33.113,292.000 34.093 C 292.000 35.142,291.934 35.833,291.833 35.833 C 291.741 35.833,291.667 35.389,291.667 34.833 C 291.667 34.056,291.611 33.833,291.417 33.833 C 291.228 33.833,291.167 33.630,291.167 33.000 C 291.167 32.542,291.092 32.167,291.000 32.167 C 290.908 32.167,290.833 31.904,290.833 31.583 C 290.833 31.262,290.767 31.000,290.685 31.000 C 290.604 31.000,290.488 30.738,290.428 30.417 C 290.367 30.096,290.247 29.833,290.159 29.833 C 290.072 29.833,290.000 29.646,290.000 29.417 C 290.000 29.188,289.925 29.000,289.833 29.000 C 289.742 29.000,289.667 28.856,289.667 28.681 C 289.667 28.505,289.573 28.323,289.458 28.277 C 289.344 28.231,289.794 28.187,290.458 28.180 L 291.667 28.167 291.667 30.157 M346.833 28.417 C 346.978 28.591,347.361 28.667,348.094 28.667 C 348.673 28.667,349.193 28.742,349.250 28.833 C 349.307 28.925,349.499 29.000,349.677 29.000 C 349.854 29.000,350.000 29.075,350.000 29.167 C 350.000 29.258,350.113 29.333,350.250 29.333 C 350.387 29.333,350.500 29.446,350.500 29.583 C 350.500 29.721,350.645 29.833,350.822 29.833 C 350.999 29.833,351.192 29.983,351.250 30.167 C 351.308 30.350,351.426 30.500,351.511 30.500 C 351.597 30.500,351.667 30.613,351.667 30.750 C 351.667 30.887,351.742 31.000,351.833 31.000 C 351.925 31.000,352.000 31.152,352.000 31.339 C 352.000 31.525,352.113 31.720,352.250 31.773 C 352.441 31.846,352.500 32.160,352.500 33.106 C 352.500 34.053,352.441 34.366,352.250 34.440 C 352.113 34.492,352.000 34.662,352.000 34.817 C 352.000 35.134,350.791 36.500,350.510 36.500 C 350.409 36.500,350.030 36.688,349.667 36.917 C 349.126 37.258,348.797 37.333,347.846 37.333 C 347.208 37.333,346.640 37.408,346.583 37.500 C 346.527 37.592,346.222 37.667,345.907 37.667 L 345.333 37.667 345.333 32.917 L 345.333 28.167 345.980 28.167 C 346.351 28.167,346.714 28.273,346.833 28.417 M26.333 29.138 C 26.333 29.225,26.071 29.345,25.750 29.406 C 25.429 29.466,25.167 29.587,25.167 29.674 C 25.167 29.762,24.979 29.833,24.750 29.833 C 24.521 29.833,24.333 29.908,24.333 30.000 C 24.333 30.092,24.106 30.167,23.828 30.167 C 23.533 30.167,23.283 30.271,23.227 30.417 C 23.174 30.554,22.952 30.667,22.732 30.667 C 22.513 30.667,22.333 30.742,22.333 30.833 C 22.333 30.925,22.146 31.000,21.917 31.000 C 21.688 31.000,21.500 31.075,21.500 31.167 C 21.500 31.258,21.348 31.333,21.161 31.333 C 20.975 31.333,20.780 31.446,20.727 31.583 C 20.674 31.721,20.489 31.833,20.316 31.833 C 20.142 31.833,20.000 31.908,20.000 32.000 C 20.000 32.092,19.813 32.167,19.583 32.167 C 19.354 32.167,19.167 32.242,19.167 32.333 C 19.167 32.425,19.014 32.500,18.828 32.500 C 18.642 32.500,18.446 32.612,18.394 32.750 C 18.341 32.887,18.118 33.000,17.899 33.000 C 17.679 33.000,17.500 33.075,17.500 33.167 C 17.500 33.258,17.348 33.333,17.161 33.333 C 16.975 33.333,16.780 33.446,16.727 33.583 C 16.674 33.721,16.493 33.833,16.325 33.833 C 16.157 33.833,15.973 33.908,15.917 34.000 C 15.860 34.092,15.668 34.167,15.490 34.167 C 15.312 34.167,15.167 34.242,15.167 34.333 C 15.167 34.425,15.021 34.500,14.843 34.500 C 14.665 34.500,14.476 34.570,14.423 34.656 C 14.297 34.861,13.344 35.333,13.058 35.333 C 12.934 35.333,12.833 35.408,12.833 35.500 C 12.833 35.592,12.688 35.667,12.510 35.667 C 12.332 35.667,12.143 35.737,12.090 35.823 C 11.982 35.998,11.028 36.500,10.804 36.500 C 10.725 36.500,10.363 36.688,10.000 36.917 C 9.637 37.146,9.226 37.333,9.087 37.333 C 8.947 37.333,8.833 37.408,8.833 37.500 C 8.833 37.592,8.683 37.667,8.500 37.667 C 8.132 37.667,7.982 39.533,8.333 39.750 C 8.436 39.814,8.500 41.252,8.500 43.510 L 8.500 47.167 8.917 47.167 C 9.146 47.167,9.333 47.242,9.333 47.333 C 9.333 47.425,9.475 47.500,9.649 47.500 C 9.822 47.500,10.008 47.612,10.060 47.750 C 10.113 47.887,10.309 48.000,10.495 48.000 C 10.681 48.000,10.833 48.075,10.833 48.167 C 10.833 48.258,11.015 48.333,11.236 48.333 C 11.458 48.333,11.664 48.390,11.694 48.458 C 11.725 48.527,12.050 48.723,12.417 48.893 C 12.783 49.064,13.214 49.270,13.373 49.352 C 13.532 49.433,13.766 49.500,13.894 49.500 C 14.022 49.500,14.219 49.612,14.333 49.750 C 14.447 49.887,14.682 50.000,14.854 50.000 C 15.026 50.000,15.167 50.075,15.167 50.167 C 15.167 50.258,15.354 50.333,15.583 50.333 C 15.813 50.333,16.000 50.408,16.000 50.500 C 16.000 50.592,16.188 50.667,16.417 50.667 C 16.676 50.667,16.833 50.761,16.833 50.917 C 16.833 51.072,16.991 51.167,17.250 51.167 C 17.479 51.167,17.667 51.242,17.667 51.333 C 17.667 51.425,17.812 51.500,17.990 51.500 C 18.168 51.500,18.360 51.575,18.417 51.667 C 18.473 51.758,18.695 51.833,18.909 51.833 C 19.123 51.833,19.341 51.946,19.394 52.083 C 19.446 52.221,19.679 52.333,19.911 52.333 C 20.143 52.333,20.333 52.408,20.333 52.500 C 20.333 52.592,20.513 52.667,20.732 52.667 C 20.952 52.667,21.174 52.779,21.227 52.917 C 21.280 53.054,21.475 53.167,21.661 53.167 C 21.848 53.167,22.000 53.242,22.000 53.333 C 22.000 53.425,22.146 53.500,22.323 53.500 C 22.501 53.500,22.693 53.575,22.750 53.667 C 22.807 53.758,22.989 53.833,23.156 53.833 C 23.323 53.833,23.553 53.946,23.667 54.083 C 23.781 54.221,24.052 54.333,24.270 54.333 C 24.488 54.333,24.667 54.408,24.667 54.500 C 24.667 54.592,24.854 54.667,25.083 54.667 C 25.313 54.667,25.500 54.742,25.500 54.833 C 25.500 54.925,25.721 55.000,25.992 55.000 C 26.264 55.000,26.548 55.116,26.629 55.260 C 26.880 55.709,28.568 55.526,28.637 55.042 C 28.666 54.835,28.760 54.667,28.845 54.667 C 28.930 54.667,29.000 54.479,29.000 54.250 C 29.000 54.021,29.075 53.833,29.167 53.833 C 29.258 53.833,29.333 53.693,29.333 53.520 C 29.333 53.348,29.446 53.114,29.583 53.000 C 29.721 52.886,29.833 52.577,29.833 52.313 C 29.833 52.049,29.908 51.833,30.000 51.833 C 30.092 51.833,30.167 51.603,30.167 51.321 C 30.167 51.040,30.279 50.697,30.417 50.560 C 30.887 50.089,30.692 48.833,30.149 48.833 C 29.975 48.833,29.832 48.740,29.829 48.625 C 29.825 48.388,26.740 46.825,26.286 46.830 C 26.123 46.832,25.946 46.721,25.894 46.583 C 25.841 46.446,25.618 46.333,25.399 46.333 C 25.179 46.333,25.000 46.258,25.000 46.167 C 25.000 46.075,24.850 46.000,24.667 46.000 C 24.483 46.000,24.333 45.925,24.333 45.833 C 24.333 45.742,24.146 45.667,23.917 45.667 C 23.657 45.667,23.500 45.572,23.500 45.417 C 23.500 45.261,23.343 45.167,23.083 45.167 C 22.854 45.167,22.667 45.092,22.667 45.000 C 22.667 44.908,22.479 44.833,22.250 44.833 C 22.021 44.833,21.833 44.758,21.833 44.667 C 21.833 44.575,21.730 44.500,21.604 44.500 C 21.477 44.500,21.281 44.387,21.167 44.250 C 21.053 44.112,20.818 44.000,20.646 44.000 C 20.474 44.000,20.333 43.925,20.333 43.833 C 20.333 43.742,20.146 43.667,19.917 43.667 C 19.688 43.667,19.500 43.593,19.500 43.503 C 19.500 43.413,19.313 43.293,19.083 43.235 C 18.854 43.178,18.667 43.064,18.667 42.982 C 18.667 42.900,18.479 42.833,18.250 42.833 C 18.021 42.833,17.833 42.758,17.833 42.667 C 17.833 42.575,17.946 42.500,18.083 42.500 C 18.221 42.500,18.333 42.387,18.333 42.250 C 18.333 42.094,18.491 42.000,18.750 42.000 C 18.979 42.000,19.167 41.925,19.167 41.833 C 19.167 41.742,19.354 41.667,19.583 41.667 C 19.813 41.667,20.000 41.592,20.000 41.500 C 20.000 41.408,20.097 41.333,20.217 41.333 C 20.336 41.333,20.519 41.247,20.624 41.142 C 20.729 41.037,21.213 40.812,21.699 40.640 C 22.185 40.469,22.608 40.255,22.639 40.165 C 22.669 40.074,22.802 40.000,22.933 40.000 C 23.164 40.000,23.345 39.928,24.123 39.526 C 24.328 39.420,24.609 39.333,24.748 39.333 C 24.886 39.333,25.000 39.221,25.000 39.083 C 25.000 38.928,25.157 38.833,25.417 38.833 C 25.646 38.833,25.833 38.758,25.833 38.667 C 25.833 38.575,26.021 38.500,26.250 38.500 C 26.479 38.500,26.667 38.425,26.667 38.333 C 26.667 38.242,26.807 38.167,26.980 38.167 C 27.152 38.167,27.386 38.054,27.500 37.917 C 27.614 37.779,27.886 37.667,28.104 37.667 C 28.322 37.667,28.500 37.592,28.500 37.500 C 28.500 37.408,28.688 37.333,28.917 37.333 C 29.176 37.333,29.333 37.239,29.333 37.083 C 29.333 36.928,29.491 36.833,29.750 36.833 C 29.979 36.833,30.167 36.758,30.167 36.667 C 30.167 36.575,30.279 36.500,30.417 36.500 C 30.598 36.500,30.667 36.314,30.667 35.828 C 30.667 35.385,30.582 35.124,30.417 35.060 C 30.279 35.008,30.167 34.785,30.167 34.566 C 30.167 34.346,30.092 34.167,30.000 34.167 C 29.908 34.167,29.833 33.979,29.833 33.750 C 29.833 33.491,29.739 33.333,29.583 33.333 C 29.428 33.333,29.333 33.176,29.333 32.917 C 29.333 32.688,29.258 32.500,29.167 32.500 C 29.075 32.500,29.000 32.350,29.000 32.167 C 29.000 31.983,28.925 31.833,28.833 31.833 C 28.742 31.833,28.667 31.724,28.667 31.591 C 28.667 31.458,28.479 31.161,28.250 30.932 C 28.021 30.703,27.833 30.362,27.833 30.174 C 27.833 29.987,27.764 29.833,27.678 29.833 C 27.593 29.833,27.499 29.665,27.470 29.458 C 27.416 29.078,26.333 28.772,26.333 29.138 M271.500 29.167 C 271.500 29.258,271.688 29.333,271.917 29.333 C 272.176 29.333,272.333 29.428,272.333 29.583 C 272.333 29.722,272.481 29.833,272.667 29.833 C 272.850 29.833,273.000 29.908,273.000 30.000 C 273.000 30.092,273.112 30.167,273.250 30.167 C 273.387 30.167,273.500 30.279,273.500 30.417 C 273.500 30.554,273.575 30.667,273.667 30.667 C 273.758 30.667,273.833 30.789,273.833 30.939 C 273.833 31.089,274.021 31.386,274.250 31.598 C 274.519 31.847,274.667 32.164,274.667 32.492 C 274.667 32.771,274.742 33.000,274.833 33.000 C 274.925 33.000,275.000 33.227,275.000 33.505 C 275.000 33.801,275.104 34.050,275.250 34.106 C 275.391 34.160,275.500 34.409,275.500 34.675 C 275.500 34.934,275.575 35.193,275.667 35.250 C 275.758 35.307,275.833 35.794,275.833 36.333 C 275.833 36.873,275.908 37.360,276.000 37.417 C 276.103 37.480,276.167 38.863,276.167 41.010 C 276.167 43.226,276.106 44.500,276.000 44.500 C 275.905 44.500,275.833 45.000,275.833 45.667 C 275.833 46.333,275.762 46.833,275.667 46.833 C 275.575 46.833,275.500 47.171,275.500 47.583 C 275.500 48.139,275.435 48.333,275.250 48.333 C 275.094 48.333,275.000 48.491,275.000 48.750 C 275.000 48.979,274.925 49.167,274.833 49.167 C 274.742 49.167,274.667 49.313,274.667 49.491 C 274.667 49.670,274.479 50.018,274.250 50.266 C 274.021 50.513,273.833 50.785,273.833 50.870 C 273.833 51.061,273.406 51.500,273.219 51.500 C 273.142 51.500,272.878 51.688,272.631 51.917 C 272.383 52.146,272.028 52.333,271.841 52.333 C 271.653 52.333,271.500 52.408,271.500 52.500 C 271.500 52.592,271.125 52.667,270.667 52.667 C 270.208 52.667,269.833 52.592,269.833 52.500 C 269.833 52.408,269.683 52.333,269.500 52.333 C 269.317 52.333,269.167 52.258,269.167 52.167 C 269.167 52.075,269.054 52.000,268.917 52.000 C 268.779 52.000,268.667 51.920,268.667 51.821 C 268.667 51.591,268.243 51.167,268.012 51.167 C 267.914 51.167,267.833 51.054,267.833 50.917 C 267.833 50.779,267.758 50.667,267.667 50.667 C 267.575 50.667,267.500 50.568,267.500 50.447 C 267.500 50.326,267.238 49.932,266.917 49.572 C 266.551 49.161,266.334 48.746,266.333 48.458 C 266.333 48.206,266.258 48.000,266.167 48.000 C 266.075 48.000,266.000 47.773,266.000 47.495 C 266.000 47.199,265.896 46.950,265.750 46.894 C 265.561 46.821,265.500 46.516,265.500 45.649 C 265.500 44.994,265.428 44.500,265.333 44.500 C 265.227 44.500,265.167 43.059,265.167 40.510 C 265.167 38.030,265.230 36.481,265.333 36.417 C 265.425 36.360,265.500 35.938,265.500 35.478 C 265.500 34.958,265.594 34.549,265.750 34.393 C 265.887 34.255,266.000 33.961,266.000 33.738 C 266.000 33.515,266.075 33.333,266.167 33.333 C 266.258 33.333,266.333 33.146,266.333 32.917 C 266.333 32.688,266.408 32.500,266.500 32.500 C 266.592 32.500,266.667 32.350,266.667 32.167 C 266.667 31.983,266.738 31.833,266.826 31.833 C 266.913 31.833,267.109 31.571,267.261 31.250 C 267.413 30.929,267.604 30.667,267.686 30.667 C 267.767 30.667,267.833 30.554,267.833 30.417 C 267.833 30.279,267.914 30.167,268.012 30.167 C 268.110 30.167,268.295 30.073,268.423 29.958 C 268.974 29.464,269.163 29.333,269.326 29.333 C 269.422 29.333,269.500 29.258,269.500 29.167 C 269.500 29.074,269.944 29.000,270.500 29.000 C 271.056 29.000,271.500 29.074,271.500 29.167 M88.217 37.667 C 88.217 38.171,88.248 38.377,88.286 38.125 C 88.324 37.873,88.324 37.460,88.286 37.208 C 88.248 36.956,88.217 37.162,88.217 37.667 M88.218 43.083 C 88.219 43.633,88.250 43.838,88.287 43.539 C 88.325 43.239,88.324 42.789,88.286 42.539 C 88.248 42.288,88.217 42.533,88.218 43.083 M122.667 73.833 L 122.667 78.000 124.583 78.000 L 126.500 78.000 126.500 90.583 L 126.500 103.167 124.583 103.167 L 122.667 103.167 122.667 107.333 L 122.667 111.500 134.083 111.500 L 145.500 111.500 145.500 107.333 L 145.500 103.167 142.583 103.167 L 139.667 103.167 139.667 99.667 L 139.667 96.167 145.167 96.167 L 150.667 96.167 150.667 92.000 L 150.667 87.833 145.167 87.833 L 139.667 87.833 139.667 82.917 L 139.667 78.000 143.750 78.000 L 147.833 78.000 147.833 80.750 L 147.833 83.500 153.417 83.500 L 159.000 83.500 159.000 76.583 L 159.000 69.667 140.833 69.667 L 122.667 69.667 122.667 73.833 M160.167 73.833 L 160.167 78.000 161.482 78.000 L 162.797 78.000 162.858 79.909 C 162.897 81.135,162.993 81.893,163.126 82.026 C 163.284 82.184,163.333 83.782,163.333 88.783 C 163.333 93.039,163.392 95.333,163.500 95.333 C 163.601 95.333,163.667 96.080,163.667 97.240 C 163.667 98.332,163.738 99.191,163.833 99.250 C 163.925 99.307,164.000 99.606,164.000 99.915 C 164.000 100.223,164.112 100.589,164.250 100.726 C 164.389 100.865,164.500 101.273,164.500 101.645 C 164.500 102.013,164.575 102.360,164.667 102.417 C 164.758 102.473,164.833 102.665,164.833 102.843 C 164.833 103.021,164.946 103.167,165.083 103.167 C 165.239 103.167,165.333 103.324,165.333 103.583 C 165.333 103.813,165.408 104.000,165.500 104.000 C 165.592 104.000,165.667 104.155,165.667 104.345 C 165.667 104.535,165.760 104.795,165.875 104.923 C 166.352 105.455,166.500 105.660,166.500 105.790 C 166.500 105.865,166.650 106.035,166.833 106.167 C 167.017 106.299,167.167 106.505,167.167 106.625 C 167.167 106.745,167.279 106.887,167.417 106.940 C 167.554 106.992,167.667 107.109,167.667 107.199 C 167.667 107.373,168.335 107.985,168.535 107.994 C 168.601 107.998,169.001 108.337,169.426 108.750 C 169.850 109.162,170.340 109.500,170.515 109.500 C 170.690 109.500,170.835 109.594,170.836 109.708 C 170.839 109.916,172.244 110.667,172.630 110.667 C 172.742 110.667,172.833 110.736,172.833 110.821 C 172.833 111.016,173.789 111.500,174.173 111.500 C 174.332 111.500,174.677 111.612,174.939 111.749 C 175.202 111.886,175.581 111.998,175.782 111.999 C 175.983 112.000,176.193 112.075,176.250 112.167 C 176.307 112.258,176.682 112.333,177.083 112.333 C 177.485 112.333,177.860 112.408,177.917 112.500 C 178.048 112.713,185.705 112.726,185.925 112.513 C 186.012 112.429,186.571 112.322,187.167 112.275 C 188.791 112.147,189.516 111.986,189.614 111.730 C 189.663 111.604,189.882 111.500,190.101 111.500 C 190.321 111.500,190.500 111.425,190.500 111.333 C 190.500 111.242,190.678 111.167,190.896 111.167 C 191.114 111.167,191.386 111.054,191.500 110.917 C 191.614 110.779,191.811 110.667,191.937 110.667 C 192.063 110.667,192.167 110.592,192.167 110.500 C 192.167 110.408,192.285 110.333,192.430 110.333 C 192.574 110.333,192.980 110.052,193.332 109.708 C 193.683 109.365,194.277 108.835,194.652 108.532 C 195.027 108.229,195.333 107.911,195.333 107.824 C 195.333 107.738,195.596 107.389,195.917 107.049 C 196.237 106.709,196.500 106.334,196.500 106.215 C 196.500 106.097,196.575 106.000,196.667 106.000 C 196.758 106.000,196.833 105.813,196.833 105.583 C 196.833 105.354,196.908 105.167,197.000 105.167 C 197.092 105.167,197.167 105.014,197.167 104.828 C 197.167 104.642,197.279 104.446,197.417 104.394 C 197.554 104.341,197.667 104.160,197.667 103.992 C 197.667 103.824,197.742 103.640,197.833 103.583 C 197.925 103.527,198.000 103.260,198.000 102.990 C 198.000 102.721,198.069 102.500,198.153 102.500 C 198.335 102.500,198.669 101.240,198.784 100.125 C 198.829 99.690,198.933 99.333,199.016 99.333 C 199.099 99.333,199.169 98.752,199.172 98.042 C 199.176 97.171,199.257 96.645,199.422 96.426 C 199.630 96.151,199.667 94.752,199.667 87.051 L 199.667 78.000 201.250 78.000 L 202.833 78.000 202.833 73.833 L 202.833 69.667 193.750 69.667 L 184.667 69.667 184.667 73.833 L 184.667 78.000 186.250 78.000 L 187.833 78.000 187.828 80.375 C 187.824 82.199,187.766 82.825,187.578 83.074 C 187.375 83.341,187.333 84.265,187.333 88.449 C 187.333 91.705,187.274 93.500,187.167 93.500 C 187.067 93.500,187.000 94.134,187.000 95.069 C 187.000 96.031,186.931 96.662,186.823 96.698 C 186.725 96.731,186.603 97.074,186.551 97.462 C 186.499 97.850,186.391 98.167,186.311 98.167 C 186.232 98.167,186.167 98.354,186.167 98.583 C 186.167 98.813,186.092 99.000,186.000 99.000 C 185.908 99.000,185.833 99.150,185.833 99.333 C 185.833 99.517,185.750 99.667,185.649 99.667 C 185.548 99.667,185.317 99.854,185.137 100.083 C 184.957 100.313,184.665 100.500,184.488 100.500 C 184.311 100.500,184.167 100.575,184.167 100.667 C 184.167 100.758,184.017 100.833,183.833 100.833 C 183.648 100.833,183.500 100.944,183.500 101.083 C 183.500 101.286,183.233 101.333,182.101 101.333 C 181.012 101.333,180.681 101.278,180.606 101.083 C 180.554 100.946,180.358 100.833,180.172 100.833 C 179.986 100.833,179.833 100.758,179.833 100.667 C 179.833 100.575,179.696 100.500,179.528 100.500 C 179.227 100.500,178.333 99.644,178.333 99.355 C 178.333 99.274,178.221 99.114,178.083 99.000 C 177.946 98.886,177.833 98.652,177.833 98.480 C 177.833 98.307,177.766 98.167,177.684 98.167 C 177.504 98.167,177.355 97.263,177.200 95.216 C 177.135 94.363,176.991 93.590,176.875 93.474 C 176.718 93.317,176.667 92.037,176.667 88.227 C 176.667 85.046,176.605 83.148,176.500 83.083 C 176.401 83.022,176.333 81.970,176.333 80.490 L 176.333 78.000 177.917 78.000 L 179.500 78.000 179.500 73.833 L 179.500 69.667 169.833 69.667 L 160.167 69.667 160.167 73.833 M204.000 77.750 L 204.000 85.833 208.750 85.833 L 213.500 85.833 213.500 81.917 L 213.500 78.000 215.667 78.000 L 217.833 78.000 217.833 90.583 L 217.833 103.167 215.417 103.167 L 213.000 103.167 213.000 107.333 L 213.000 111.500 224.250 111.500 L 235.500 111.500 235.500 107.333 L 235.500 103.167 233.167 103.167 L 230.833 103.167 230.833 90.583 L 230.833 78.000 232.747 78.000 L 234.661 78.000 234.705 81.875 L 234.750 85.750 239.458 85.794 L 244.167 85.839 244.167 77.753 L 244.167 69.667 224.083 69.667 L 204.000 69.667 204.000 77.750 M245.333 73.833 L 245.333 78.000 246.740 78.000 L 248.146 78.000 248.246 79.958 C 248.301 81.035,248.399 84.910,248.464 88.570 C 248.555 93.658,248.632 95.239,248.792 95.292 C 248.943 95.342,249.000 95.906,249.000 97.347 C 249.000 98.560,249.065 99.333,249.167 99.333 C 249.258 99.333,249.333 99.671,249.333 100.083 C 249.333 100.639,249.398 100.833,249.583 100.833 C 249.768 100.833,249.833 101.027,249.833 101.573 C 249.833 101.981,249.908 102.360,250.000 102.417 C 250.092 102.473,250.167 102.665,250.167 102.843 C 250.167 103.021,250.242 103.167,250.333 103.167 C 250.425 103.167,250.500 103.354,250.500 103.583 C 250.500 103.843,250.594 104.000,250.750 104.000 C 250.906 104.000,251.000 104.157,251.000 104.417 C 251.000 104.646,251.075 104.833,251.167 104.833 C 251.258 104.833,251.333 104.983,251.333 105.167 C 251.333 105.350,251.408 105.500,251.500 105.500 C 251.592 105.500,251.667 105.612,251.667 105.750 C 251.667 105.888,251.747 106.000,251.845 106.000 C 252.059 106.000,252.500 106.417,252.500 106.620 C 252.500 106.828,253.634 108.000,253.836 108.000 C 253.929 108.000,254.329 108.337,254.724 108.750 C 255.119 109.162,255.568 109.500,255.721 109.500 C 255.875 109.500,256.000 109.575,256.000 109.667 C 256.000 109.759,256.300 109.964,256.667 110.123 C 257.033 110.282,257.333 110.469,257.333 110.539 C 257.333 110.609,257.474 110.667,257.646 110.667 C 257.818 110.667,258.053 110.779,258.167 110.917 C 258.281 111.054,258.477 111.167,258.604 111.167 C 258.730 111.167,258.833 111.242,258.833 111.333 C 258.833 111.425,259.096 111.500,259.417 111.500 C 259.737 111.500,260.000 111.572,260.000 111.659 C 260.000 111.747,260.281 111.863,260.625 111.918 C 260.969 111.973,261.380 112.089,261.539 112.176 C 261.699 112.262,262.130 112.333,262.498 112.333 C 262.866 112.333,263.167 112.408,263.167 112.500 C 263.167 112.606,264.608 112.667,267.157 112.667 C 269.637 112.667,271.186 112.604,271.250 112.500 C 271.307 112.408,271.832 112.333,272.417 112.333 C 273.002 112.333,273.527 112.258,273.583 112.167 C 273.640 112.075,273.902 112.000,274.165 112.000 C 274.428 112.000,274.755 111.888,274.893 111.750 C 275.030 111.612,275.298 111.500,275.488 111.500 C 275.678 111.500,275.833 111.425,275.833 111.333 C 275.833 111.242,276.023 111.167,276.255 111.167 C 276.487 111.167,276.720 111.054,276.773 110.917 C 276.826 110.779,276.973 110.667,277.101 110.667 C 277.229 110.667,277.333 110.592,277.333 110.500 C 277.333 110.408,277.465 110.331,277.625 110.328 C 277.985 110.321,278.500 109.946,278.500 109.690 C 278.500 109.585,278.574 109.500,278.665 109.500 C 279.014 109.500,280.500 108.050,280.500 107.710 C 280.500 107.595,280.585 107.500,280.689 107.500 C 280.964 107.500,281.666 106.632,281.666 106.292 C 281.667 106.131,281.779 106.000,281.917 106.000 C 282.072 106.000,282.167 105.843,282.167 105.583 C 282.167 105.354,282.242 105.167,282.333 105.167 C 282.425 105.167,282.500 105.053,282.500 104.913 C 282.500 104.774,282.687 104.363,282.917 104.000 C 283.146 103.637,283.333 103.151,283.333 102.920 C 283.333 102.689,283.408 102.500,283.500 102.500 C 283.592 102.500,283.667 102.209,283.667 101.854 C 283.667 101.483,283.773 101.119,283.917 101.000 C 284.068 100.874,284.167 100.509,284.167 100.073 C 284.167 99.677,284.242 99.307,284.333 99.250 C 284.425 99.193,284.500 98.593,284.500 97.917 C 284.500 97.240,284.575 96.640,284.667 96.583 C 284.775 96.517,284.833 93.220,284.833 87.240 L 284.833 78.000 286.417 78.000 L 288.000 78.000 288.000 73.833 L 288.000 69.667 278.917 69.667 L 269.833 69.667 269.833 73.833 L 269.833 78.000 271.417 78.000 L 273.000 78.000 273.000 80.490 C 273.000 81.970,272.932 83.022,272.833 83.083 C 272.728 83.148,272.667 85.085,272.667 88.343 C 272.667 91.670,272.608 93.500,272.500 93.500 C 272.401 93.500,272.333 94.115,272.333 95.012 C 272.333 96.134,272.269 96.588,272.083 96.774 C 271.946 96.911,271.833 97.281,271.833 97.595 C 271.833 97.910,271.758 98.167,271.667 98.167 C 271.575 98.167,271.500 98.282,271.500 98.423 C 271.500 98.988,270.267 100.500,269.806 100.500 C 269.638 100.500,269.500 100.575,269.500 100.667 C 269.500 100.758,269.348 100.833,269.161 100.833 C 268.975 100.833,268.780 100.946,268.727 101.083 C 268.653 101.276,268.333 101.333,267.333 101.333 C 266.334 101.333,266.014 101.276,265.940 101.083 C 265.887 100.946,265.691 100.833,265.505 100.833 C 265.319 100.833,265.167 100.758,265.167 100.667 C 265.167 100.575,265.022 100.500,264.845 100.500 C 264.669 100.500,264.377 100.313,264.196 100.083 C 264.016 99.854,263.786 99.667,263.684 99.667 C 263.583 99.667,263.500 99.521,263.500 99.343 C 263.500 99.165,263.425 98.973,263.333 98.917 C 263.242 98.860,263.167 98.668,263.167 98.490 C 263.167 98.312,263.092 98.167,263.000 98.167 C 262.908 98.167,262.833 97.910,262.833 97.595 C 262.833 97.281,262.721 96.911,262.583 96.774 C 262.398 96.588,262.333 96.134,262.333 95.012 C 262.333 94.144,262.264 93.500,262.171 93.500 C 262.072 93.500,261.977 91.525,261.926 88.375 C 261.879 85.556,261.799 82.069,261.746 80.625 L 261.650 78.000 263.242 78.000 L 264.833 78.000 264.833 73.833 L 264.833 69.667 255.083 69.667 L 245.333 69.667 245.333 73.833 M289.167 73.833 L 289.167 78.000 291.000 78.000 L 292.833 78.000 292.833 90.578 L 292.833 103.155 291.042 103.203 L 289.250 103.250 289.205 107.375 L 289.161 111.500 299.247 111.500 L 309.333 111.500 309.333 107.333 L 309.333 103.167 307.583 103.167 L 305.833 103.167 305.833 99.083 C 305.833 95.152,305.845 95.000,306.157 95.000 C 306.335 95.000,306.527 95.075,306.583 95.167 C 306.640 95.258,307.132 95.333,307.677 95.333 C 308.226 95.333,308.667 95.408,308.667 95.500 C 308.667 95.592,308.817 95.667,309.000 95.667 C 309.185 95.667,309.333 95.778,309.333 95.917 C 309.333 96.054,309.414 96.167,309.512 96.167 C 309.915 96.167,310.167 96.671,310.167 97.478 C 310.167 97.938,310.242 98.360,310.333 98.417 C 310.425 98.473,310.500 99.181,310.500 99.989 C 310.500 101.093,310.562 101.511,310.750 101.667 C 310.938 101.823,311.000 102.242,311.000 103.354 C 311.000 104.229,311.068 104.833,311.167 104.833 C 311.258 104.833,311.333 105.071,311.333 105.361 C 311.333 105.930,311.812 107.167,312.032 107.167 C 312.106 107.167,312.167 107.322,312.167 107.512 C 312.167 107.881,312.527 108.333,312.821 108.333 C 312.920 108.333,313.000 108.468,313.000 108.633 C 313.000 108.997,314.249 110.333,314.590 110.333 C 314.724 110.333,314.833 110.408,314.833 110.500 C 314.833 110.592,314.946 110.667,315.083 110.667 C 315.221 110.667,315.333 110.779,315.333 110.917 C 315.333 111.072,315.491 111.167,315.750 111.167 C 315.979 111.167,316.167 111.242,316.167 111.333 C 316.167 111.425,316.273 111.500,316.403 111.500 C 316.533 111.500,316.889 111.625,317.195 111.778 C 317.500 111.931,317.880 112.119,318.039 112.195 C 318.462 112.397,326.290 112.371,326.417 112.167 C 326.473 112.075,326.660 112.000,326.831 112.000 C 327.003 112.000,327.255 111.888,327.393 111.750 C 327.530 111.612,327.766 111.500,327.917 111.500 C 328.226 111.500,328.667 111.115,328.667 110.845 C 328.667 110.747,328.745 110.667,328.841 110.667 C 329.027 110.667,329.833 109.918,329.833 109.746 C 329.833 109.689,329.946 109.530,330.083 109.393 C 330.221 109.255,330.333 109.003,330.333 108.831 C 330.333 108.660,330.408 108.473,330.500 108.417 C 330.592 108.360,330.667 108.139,330.667 107.925 C 330.667 107.711,330.779 107.492,330.917 107.440 C 331.054 107.387,331.167 107.158,331.167 106.932 C 331.167 106.705,331.242 106.473,331.333 106.417 C 331.425 106.360,331.500 105.868,331.500 105.323 C 331.500 104.774,331.574 104.333,331.667 104.333 C 331.767 104.333,331.833 103.663,331.833 102.655 C 331.833 101.361,331.893 100.917,332.092 100.718 C 332.269 100.541,332.334 100.217,332.300 99.688 L 332.250 98.917 329.708 98.871 L 327.167 98.825 327.167 99.496 C 327.167 99.865,327.092 100.167,327.000 100.167 C 326.908 100.167,326.833 100.504,326.833 100.917 C 326.833 101.329,326.756 101.667,326.663 101.667 C 326.569 101.667,326.405 101.873,326.299 102.125 C 326.111 102.574,326.106 102.576,326.041 102.198 C 326.004 101.986,325.867 101.772,325.737 101.722 C 325.598 101.668,325.500 101.402,325.500 101.075 C 325.500 100.770,325.425 100.473,325.333 100.417 C 325.242 100.360,325.167 99.831,325.167 99.240 C 325.167 98.636,325.094 98.167,325.000 98.167 C 324.908 98.167,324.833 97.726,324.833 97.179 C 324.833 96.522,324.749 96.106,324.583 95.940 C 324.446 95.803,324.333 95.609,324.333 95.510 C 324.333 95.098,323.648 94.167,323.345 94.167 C 323.247 94.167,323.167 94.048,323.167 93.904 C 323.167 93.606,322.169 92.577,321.417 92.099 C 321.142 91.924,320.857 91.680,320.783 91.557 C 320.710 91.434,320.504 91.333,320.325 91.333 C 320.146 91.333,320.000 91.258,320.000 91.167 C 320.000 91.075,319.887 91.000,319.750 91.000 C 319.612 91.000,319.500 90.925,319.500 90.833 C 319.500 90.742,319.690 90.667,319.922 90.667 C 320.154 90.667,320.387 90.554,320.440 90.417 C 320.492 90.279,320.678 90.167,320.851 90.167 C 321.025 90.167,321.167 90.092,321.167 90.000 C 321.167 89.908,321.306 89.833,321.477 89.833 C 321.647 89.833,321.927 89.646,322.100 89.417 C 322.272 89.188,322.475 89.000,322.551 89.000 C 322.750 89.000,323.167 88.557,323.167 88.345 C 323.167 88.247,323.245 88.167,323.341 88.167 C 323.567 88.167,324.333 87.400,324.333 87.174 C 324.333 87.078,324.403 87.000,324.488 87.000 C 324.687 87.000,325.167 86.041,325.167 85.641 C 325.167 85.472,325.242 85.333,325.333 85.333 C 325.428 85.333,325.500 84.839,325.500 84.184 C 325.500 83.317,325.561 83.012,325.750 82.940 C 325.939 82.867,326.000 82.562,326.000 81.692 C 326.000 80.872,325.928 80.481,325.750 80.333 C 325.569 80.183,325.500 79.786,325.500 78.896 C 325.500 78.188,325.429 77.667,325.333 77.667 C 325.242 77.667,325.167 77.367,325.167 77.000 C 325.167 76.633,325.092 76.333,325.000 76.333 C 324.908 76.333,324.833 76.191,324.833 76.018 C 324.833 75.844,324.721 75.659,324.583 75.606 C 324.446 75.554,324.333 75.358,324.333 75.172 C 324.333 74.986,324.263 74.833,324.178 74.833 C 324.092 74.833,323.980 74.702,323.929 74.542 C 323.877 74.381,323.610 73.987,323.335 73.667 C 323.059 73.346,322.834 73.027,322.834 72.958 C 322.834 72.890,322.721 72.833,322.583 72.833 C 322.446 72.833,322.333 72.758,322.333 72.667 C 322.333 72.575,322.218 72.500,322.078 72.500 C 321.938 72.500,321.780 72.387,321.727 72.250 C 321.674 72.112,321.527 72.000,321.399 72.000 C 321.271 72.000,321.166 71.944,321.165 71.875 C 321.164 71.710,320.343 71.333,319.985 71.333 C 319.829 71.333,319.659 71.221,319.606 71.083 C 319.550 70.937,319.301 70.833,319.005 70.833 C 318.727 70.833,318.500 70.758,318.500 70.667 C 318.500 70.575,318.131 70.500,317.681 70.500 C 317.183 70.500,316.834 70.420,316.793 70.296 C 316.750 70.166,316.248 70.070,315.404 70.030 C 314.678 69.996,314.012 69.900,313.925 69.817 C 313.834 69.730,308.549 69.667,301.467 69.667 L 289.167 69.667 289.167 73.833 M333.000 73.833 L 333.000 78.000 335.000 78.000 L 337.000 78.000 337.000 90.578 L 337.000 103.156 335.042 103.203 L 333.083 103.250 333.039 107.375 L 332.994 111.500 351.414 111.500 L 369.833 111.500 369.833 104.583 L 369.833 97.667 364.250 97.667 L 358.667 97.667 358.667 100.417 L 358.667 103.167 354.333 103.167 L 350.000 103.167 350.000 98.667 L 350.000 94.167 355.583 94.167 L 361.167 94.167 361.167 89.833 L 361.167 85.500 355.583 85.500 L 350.000 85.500 350.000 81.750 L 350.000 78.000 354.333 78.000 L 358.667 78.000 358.667 80.750 L 358.667 83.500 364.250 83.500 L 369.833 83.500 369.833 76.583 L 369.833 69.667 351.417 69.667 L 333.000 69.667 333.000 73.833 M307.417 78.167 C 307.473 78.258,308.005 78.333,308.598 78.333 C 309.404 78.333,309.701 78.397,309.773 78.583 C 309.826 78.721,310.011 78.833,310.184 78.833 C 310.358 78.833,310.500 78.908,310.500 79.000 C 310.500 79.092,310.612 79.167,310.750 79.167 C 310.887 79.167,311.000 79.242,311.000 79.333 C 311.000 79.425,311.107 79.500,311.239 79.500 C 311.370 79.500,311.648 79.744,311.858 80.042 C 312.067 80.340,312.297 80.608,312.369 80.639 C 312.441 80.669,312.500 80.876,312.500 81.097 C 312.500 81.344,312.597 81.500,312.750 81.500 C 312.951 81.500,313.000 81.760,313.000 82.839 C 313.000 83.875,312.944 84.199,312.750 84.273 C 312.612 84.326,312.500 84.511,312.500 84.684 C 312.500 84.858,312.425 85.000,312.333 85.000 C 312.242 85.000,312.167 85.080,312.167 85.179 C 312.167 85.409,311.743 85.833,311.512 85.833 C 311.414 85.833,311.333 85.946,311.333 86.083 C 311.333 86.239,311.176 86.333,310.917 86.333 C 310.688 86.333,310.500 86.408,310.500 86.500 C 310.500 86.592,310.354 86.667,310.177 86.667 C 309.999 86.667,309.807 86.742,309.750 86.833 C 309.693 86.925,309.178 87.000,308.605 87.000 C 307.947 87.000,307.445 87.090,307.240 87.245 C 307.062 87.379,306.673 87.492,306.375 87.495 L 305.833 87.500 305.833 82.750 L 305.833 78.000 306.573 78.000 C 306.981 78.000,307.360 78.075,307.417 78.167 " stroke="none" fill="#3c3c3c" fill-rule="evenodd"></path></g></svg>