<?xml version="1.0" encoding="utf-8"?>
<svg
  class="menu__logo__svg"
  xmlns="http://www.w3.org/2000/svg"
  viewBox="0 0 241 130"
>
  <style type="text/css">
    .menu__logo__svg__outline{fill: #e5231e;}
    .menu__logo__svg__letters{fill:#FFFFFF;}
    .menu__logo__svg__triangle{fill: #b2b2b2;}
    .menu__logo__svg__baseline {fill: #000;}
  </style>
  <path
    class="menu__logo__svg__baseline"
    d="M133.2 111.3H146c4 .2 5.9 2.3 5.4 6.3-.4 4-2.5 6.1-6.4 6.4h-7.6l-.6 5.8h-5.5l1.9-18.5zm4.8 7.8h6.9c1 0 1.6-.5 1.8-1.5.2-1-.3-1.6-1.4-1.7h-6.9l-.4 3.2zm28.7 10.9H158c-3.9 0-5.5-3.1-4.9-9.4.6-6.3 3-9.5 7.1-9.6h7.2c4.3-.1 6.1 3 5.4 9.2-.3 6.5-2.3 9.7-6.1 9.8m-8.5-6.4c.3.8.8 1.3 1.6 1.5h5.1c.9-.1 1.5-.5 1.8-1.2.4-.5.7-1.7.9-3.6.2-1.9 0-3.1-.4-3.6s-1-.9-1.9-.9h-3.9c-1.1.1-1.9.6-2.4 1.7-.3.5-.6 1.5-.7 3.2-.2 1.5-.3 2.5-.1 2.9m40-12.3l-1.9 18.6h-16.6c-3.7.1-5.4-1.9-5.2-5.9l1.3-12.7h4.7l-1.1 11.3c-.3 1.4.1 2.1 1.2 2h2.5l1.3-13.3h4.7l-1.3 13.3h4l1.3-13.3h5.1zm19.3 18.4h-13c-3.7-.2-5.3-3.3-4.7-9.2.6-5.9 2.9-9 6.9-9.2h12.7l-.4 4.5h-11.2c-1 0-1.5.2-1.7.7l-.4 1.6h13.2l-.5 4.4-13.1-.1v1c0 .9.4 1.4 1 1.4h11.9l-.7 4.9zm4.2-18.4h12.8c3.9.6 5.7 2.7 5.5 6.3-.1 2.6-1.1 4.7-3.1 6.2l2.6 6.1h-6.2l-2.5-5.8H226l-.6 5.8h-5.5l1.8-18.6zm4.8 7.8h6.8c1 0 1.6-.5 1.8-1.5.2-1-.3-1.6-1.4-1.7h-6.9l-.3 3.2z"
  ></path>
  <path
    class="menu__logo__svg__outline"
    d="M220.7 0v20.8h-18.6v59.7H180V20.9h-21.1V.1l-20.8 20.8H109v9.8h28.8v19.7H109v9.9h28.8v20.2H86.9V20.9l16.2-16.3 4.5-4.5h-7.7L79.2 20.9h-15c-5.1 0-9.5 1.7-12.9 5.7-3.4 3.9-5.2 8.5-5.2 13.7 0 5.2 1.8 10.2 5.2 14.2 3.5 3.9 7.8 5.9 12.9 5.9h15v20.2H63c-10.8 0-19.8-3.9-27.1-11.8-7.3-7.9-11-17.4-11-28.5 0-11.1 3.7-20.6 11-28.5L18.7 28.9l-6.5 6.5C3.9 43.4 0 54.9 0 66c0 10.9 3.7 20.2 11 27.9 7.3 7.7 16.4 11.6 27.1 11.6h85.5l35.3-35.3 35.3 35.3H225V40.7h15.6V19.9L220.7 0z"
  ></path>
  <path
    class="menu__logo__svg__letters"
    d="M64.2 20.9h15L100 .1 79.2 0H63C52.2 0 43.1 3.9 35.8 11.8c-7.3 7.9-11 17.4-11 28.5 0 11.1 3.7 20.6 11 28.5 7.3 7.9 16.4 11.8 27.1 11.8h16.2V60.4h-15c-5.1 0-9.5-2-12.9-5.9-3.4-3.9-5.2-8.9-5.2-14.2 0-5.2 1.8-9.8 5.2-13.7 3.5-4 7.8-5.7 13-5.7zm22.7 0v59.7h50.9V60.4H109v-9.9h28.8V30.7H109v-9.8h29.1L158.9.1h-51.2L86.9 20.9zm72-20.8v20.8H180v59.7h22.1V20.9h18.6V0l-61.8.1zm-.7 33l-2.8 2.8v11.7h-11.7l-2.8 2.8h14.6V65l2.8-2.8V50.5H170l2.8-2.8h-14.6V33.1z"
  ></path>
  <path
    class="menu__logo__svg__triangle"
    d="M132.6 105.4l26.3-26.3 26.3 26.3z"
  ></path>
</svg>