<?xml version="1.0" standalone="no"?>
<!DOCTYPE svg PUBLIC "-//W3C//DTD SVG 20010904//EN"
 "http://www.w3.org/TR/2001/REC-SVG-20010904/DTD/svg10.dtd">
<svg version="1.0" xmlns="http://www.w3.org/2000/svg"
 width="1013.000000pt" height="320.000000pt" viewBox="0 0 1013.000000 320.000000"
 preserveAspectRatio="xMidYMid meet">

<g transform="translate(0.000000,320.000000) scale(0.100000,-0.100000)"
fill="#000000" stroke="none">
<path d="M2223 2706 c-176 -43 -312 -182 -357 -367 -20 -83 -21 -253 -1 -337
44 -184 158 -305 340 -358 79 -22 256 -23 344 0 181 46 297 167 341 356 19 80
17 271 -4 350 -49 191 -161 308 -341 354 -71 19 -247 20 -322 2z m214 -241
c65 -43 105 -221 85 -377 -13 -107 -42 -172 -92 -205 -50 -34 -77 -30 -126 21
-62 66 -77 122 -77 286 1 118 4 143 23 188 31 71 83 115 129 108 18 -3 44 -12
58 -21z"/>
<path d="M1152 2691 c-112 -39 -214 -132 -272 -249 -46 -94 -64 -173 -63 -292
1 -234 108 -406 305 -487 76 -31 227 -42 334 -24 90 16 214 77 287 142 l57 51
-39 46 c-22 26 -62 72 -89 102 l-50 55 -56 -53 c-74 -70 -132 -96 -203 -90
-63 5 -94 26 -141 91 -83 116 -60 346 45 437 33 30 41 32 91 28 46 -4 60 -10
83 -36 15 -17 35 -56 45 -86 l18 -56 133 0 133 0 0 215 0 215 -118 0 -118 0
-17 -35 -17 -35 -41 26 c-23 14 -59 32 -81 40 -56 19 -162 17 -226 -5z"/>
<path d="M6693 2695 c-78 -21 -144 -58 -207 -115 l-56 -52 0 81 0 81 -205 0
-205 0 0 -100 0 -100 41 0 41 0 -65 -121 c-35 -66 -67 -120 -71 -120 -4 0 -34
55 -66 121 l-59 120 34 0 35 0 0 100 0 100 -260 0 -260 0 0 -100 0 -100 38 0
39 0 147 -242 146 -243 0 -82 0 -83 -45 0 -45 0 0 -100 0 -100 245 0 245 0 0
100 0 100 -45 0 -45 0 0 79 0 80 124 215 c147 254 161 276 187 276 24 0 24 3
-5 -61 -37 -86 -50 -156 -50 -269 1 -179 51 -316 149 -409 100 -94 213 -134
380 -134 176 0 281 34 378 123 125 114 179 320 143 548 -33 217 -153 356 -351
407 -75 19 -261 19 -332 0z m225 -241 c34 -22 71 -113 85 -206 14 -97 -2 -238
-33 -304 -24 -49 -81 -94 -119 -94 -39 0 -107 79 -127 146 -19 65 -22 278 -5
340 33 120 119 171 199 118z"/>
<path d="M2960 2601 l0 -101 50 0 50 0 0 -325 0 -325 -50 0 -50 0 0 -101 0
-102 308 6 c217 4 324 10 363 20 171 44 297 172 344 348 9 31 15 100 15 162 0
117 -18 191 -67 274 -33 58 -123 138 -194 174 -106 53 -157 60 -476 66 l-293
6 0 -102z m517 -116 c35 -11 62 -27 87 -55 55 -61 68 -101 74 -227 8 -194 -43
-303 -160 -338 -28 -8 -64 -15 -80 -15 l-28 0 0 325 0 325 28 0 c16 0 51 -7
79 -15z"/>
<path d="M4040 2600 l0 -100 50 0 50 0 0 -325 0 -325 -50 0 -50 0 0 -100 0
-100 460 0 460 0 0 170 0 170 -135 0 -135 0 0 -70 0 -70 -115 0 -115 0 0 120
0 120 140 0 140 0 0 105 0 105 -140 0 -140 0 0 100 0 100 115 0 115 0 0 -70 0
-70 135 0 135 0 0 170 0 170 -460 0 -460 0 0 -100z"/>
<path d="M7320 2590 l0 -100 38 0 39 0 7 -227 c4 -126 11 -257 17 -293 20
-134 94 -238 208 -298 89 -46 136 -55 273 -50 140 5 187 20 258 84 116 105
150 246 150 622 l0 162 55 0 55 0 0 -325 0 -325 -45 0 -45 0 0 -100 0 -100
250 0 250 0 0 100 0 100 -45 0 -45 0 0 110 0 110 30 0 c39 0 87 -24 94 -47 3
-10 10 -61 16 -113 14 -124 47 -193 111 -233 91 -56 253 -57 325 -2 41 32 70
105 79 208 l7 77 -56 0 -56 0 0 -33 c0 -18 -7 -42 -15 -53 -14 -18 -16 -18
-29 -1 -7 9 -19 50 -25 91 -14 85 -46 137 -110 176 -22 14 -41 28 -41 31 0 3
18 14 39 24 79 35 131 114 131 199 0 160 -80 259 -231 287 -30 5 -282 13 -561
16 l-508 6 0 -102 0 -101 42 0 41 0 -6 -227 c-3 -126 -11 -246 -18 -268 -6
-22 -28 -57 -49 -77 -32 -32 -44 -38 -80 -38 -36 0 -48 6 -80 38 -21 20 -43
55 -49 77 -7 22 -15 142 -18 268 l-6 227 41 0 42 0 0 100 0 100 -240 0 -240 0
0 -100z m1549 -120 c92 -47 89 -177 -5 -216 -18 -8 -54 -14 -79 -14 l-45 0 0
125 0 125 45 0 c26 0 63 -9 84 -20z"/>
<path d="M5040 2450 c-11 -15 -31 -52 -45 -82 -22 -47 -23 -54 -9 -65 8 -6 87
-44 174 -84 87 -40 157 -76 155 -79 -2 -3 -80 -41 -174 -84 -95 -44 -171 -85
-171 -92 0 -16 40 -126 50 -137 5 -6 449 188 478 209 2 1 6 52 9 112 l6 110
-74 38 c-41 20 -143 70 -226 110 l-153 72 -20 -28z"/>
<path d="M500 2371 c-91 -43 -191 -91 -222 -106 l-58 -29 0 -67 c0 -36 3 -86
6 -110 l6 -44 127 -59 c225 -105 345 -156 352 -148 4 4 17 35 29 69 17 46 20
66 12 76 -6 7 -81 46 -167 86 -85 41 -155 77 -155 81 0 4 74 43 165 86 91 43
165 84 165 89 -1 17 -74 149 -85 152 -5 1 -84 -33 -175 -76z"/>
<path d="M3110 1330 l0 -100 50 0 50 0 0 -325 0 -325 -50 0 -50 0 0 -100 0
-100 285 0 285 0 0 100 0 100 -75 0 -75 0 0 95 0 95 140 0 140 0 0 100 0 100
-140 0 -140 0 0 130 0 130 110 0 110 0 0 -70 0 -70 135 0 135 0 0 170 0 170
-455 0 -455 0 0 -100z"/>
<path d="M4060 1330 l0 -100 38 0 39 0 7 -227 c4 -126 11 -257 17 -293 20
-134 94 -238 208 -298 89 -46 136 -55 273 -50 140 5 187 20 258 84 116 105
150 246 150 622 l0 162 40 0 40 0 0 100 0 100 -225 0 -225 0 0 -100 0 -100 40
0 40 0 0 -157 c0 -182 -14 -328 -34 -378 -41 -97 -191 -97 -232 0 -20 50 -34
196 -34 378 l0 157 40 0 40 0 0 100 0 100 -240 0 -240 0 0 -100z"/>
<path d="M5170 1230 l0 -200 115 0 115 0 0 100 0 100 60 0 60 0 0 -325 0 -325
-60 0 -60 0 0 -100 0 -100 280 0 280 0 0 100 0 100 -60 0 -60 0 0 325 0 325
55 0 55 0 0 -100 0 -100 115 0 115 0 0 200 0 200 -505 0 -505 0 0 -200z"/>
<path d="M6220 1330 l0 -100 38 0 39 0 7 -227 c4 -126 11 -257 17 -293 20
-134 94 -238 208 -298 89 -46 136 -55 273 -50 140 5 187 20 258 84 116 105
150 246 150 622 l0 162 40 0 40 0 0 100 0 100 -225 0 -225 0 0 -100 0 -100 40
0 40 0 0 -157 c0 -182 -14 -328 -34 -378 -41 -97 -191 -97 -232 0 -20 50 -34
196 -34 378 l0 157 40 0 40 0 0 100 0 100 -240 0 -240 0 0 -100z"/>
<path d="M7330 1330 l0 -100 45 0 45 0 0 -325 0 -325 -45 0 -45 0 0 -100 0
-100 250 0 250 0 0 100 0 100 -45 0 -45 0 0 110 0 110 30 0 c39 0 87 -24 94
-47 3 -10 10 -58 16 -108 6 -49 14 -101 17 -115 11 -48 60 -105 115 -135 48
-27 62 -29 148 -29 99 0 136 11 173 52 27 29 54 118 62 200 l8 72 -57 0 -56 0
0 -33 c0 -18 -7 -42 -15 -53 -14 -18 -16 -18 -29 -1 -7 9 -19 50 -25 91 -14
85 -46 137 -110 176 -22 14 -41 28 -41 31 0 3 18 14 39 24 82 37 131 114 131
208 0 131 -63 226 -172 261 -74 23 -252 35 -520 36 l-218 0 0 -100z m539 -120
c92 -47 89 -177 -5 -216 -18 -8 -54 -14 -79 -14 l-45 0 0 125 0 125 45 0 c26
0 63 -9 84 -20z"/>
<path d="M8440 1330 l0 -100 50 0 50 0 0 -325 0 -325 -50 0 -50 0 0 -100 0
-100 460 0 460 0 0 170 0 170 -135 0 -135 0 0 -70 0 -70 -115 0 -115 0 0 120
0 120 140 0 140 0 0 105 0 105 -140 0 -140 0 0 100 0 100 115 0 115 0 0 -70 0
-70 135 0 135 0 0 170 0 170 -460 0 -460 0 0 -100z"/>
</g>
</svg>
